<svg width="528" height="377" viewBox="0 0 528 377" fill="none" xmlns="http://www.w3.org/2000/svg">
<path d="M68.3163 227.79L61.2458 233.406L67.1452 238.87L79.2617 235.59V229.43L68.3163 227.79Z" fill="#4741FE"/>
<path d="M68.3163 227.79L79.2617 229.43V219.096L68.3163 227.79Z" fill="#4741FE"/>
<path d="M61.2458 233.406L68.3163 227.79L52.6474 225.442L61.2458 233.406Z" fill="#4741FE"/>
<path d="M67.1452 238.87L61.2458 233.406L47.7591 244.117L67.1452 238.87Z" fill="#4741FE"/>
<path d="M79.2617 235.59L67.1452 238.87L79.2617 250.092V235.59Z" fill="#4741FE"/>
<path d="M79.2617 229.43V235.59L93.9077 231.625L79.2617 229.43Z" fill="#4741FE"/>
<path d="M206.821 323.399C212.742 324.84 217.39 328.971 220.908 335.242C225.021 342.573 224.078 353.102 220.048 361.522H236.212C222.074 343.727 196.347 260.464 185.251 221.057C179.366 225.337 171.292 226.302 162.661 225.442C166.154 248.106 177.11 295.545 192.997 303.986C202.711 301.886 206.273 315.219 206.821 323.399Z" fill="#4741FE"/>
<path d="M206.821 199.487C200.546 186.937 172.15 169.419 158.736 162.228L157.797 131.075C139.436 133.208 103.936 144.071 101.869 151.462C96.3661 157.813 94.1294 164.366 93.9077 170.659C93.8985 170.92 93.8928 171.18 93.8904 171.439C93.712 191.03 112.695 207.891 112.695 207.891C112.695 207.891 139.656 223.149 162.661 225.442C171.292 226.302 179.366 225.337 185.251 221.057L206.821 199.487Z" fill="#4741FE"/>
<path fill-rule="evenodd" clip-rule="evenodd" d="M112.695 207.891C112.695 207.891 93.712 191.03 93.8904 171.439C93.8928 171.18 93.8985 170.92 93.9077 170.659C76.7169 186.734 33.0213 226.516 18.5684 253.019C-1.65425 290.101 -8.09143 330.747 30.3343 356.364C59.4639 375.783 134.293 379.828 174.969 367.799C165.274 363.787 161.547 350.275 162.661 337.581C164.004 322.286 172.854 316.664 187.087 306.773C189.272 305.255 191.235 304.367 192.997 303.986C177.11 295.545 166.154 248.106 162.661 225.442C139.656 223.149 112.695 207.891 112.695 207.891ZM79.2617 219.096V229.43L93.9077 231.625L79.2617 235.59V250.092L67.1452 238.87L47.7591 244.117L61.2458 233.406L52.6474 225.442L68.3163 227.79L79.2617 219.096Z" fill="#4741FE"/>
<path d="M296.506 270.833C289.314 237.718 285.38 199.901 262.708 177.916C261.473 185.72 251.23 194.441 241.35 202.191C241.279 228.817 243.293 285.684 251.922 300.139C245.65 264.435 279.031 265.725 296.506 270.833Z" fill="#4741FE"/>
<path d="M251.922 300.139C243.293 285.684 241.279 228.817 241.35 202.191C240.091 203.179 238.837 204.151 237.609 205.104L237.601 205.11L237.596 205.114C230.36 210.726 224.006 215.654 222.508 219.096C224.373 263.355 233.885 353.802 257.014 361.522H300.884C274.96 361.522 257.441 320.6 251.922 300.139Z" fill="#4741FE"/>
<path d="M271.825 314.538C267.482 297.974 290.346 293.205 302.32 292.89C300.023 285.963 298.176 278.525 296.506 270.833C279.031 265.725 245.65 264.435 251.922 300.139C257.441 320.6 274.96 361.522 300.884 361.522C294.745 357.436 288.907 347.415 285.925 337.581C283.034 336.801 276.167 331.101 271.825 314.538Z" fill="#4741FE"/>
<path d="M206.821 199.487L222.508 219.096C224.006 215.654 230.36 210.726 237.596 205.114L237.601 205.11L237.609 205.104C238.837 204.151 240.091 203.179 241.35 202.191C251.23 194.441 261.473 185.72 262.708 177.916C272.736 154.58 249.706 145.33 241.35 137.618C238.817 142.839 235.826 147.555 232.313 151.462C227.607 178.93 213.358 194.924 206.821 199.487Z" fill="#4741FE"/>
<path fill-rule="evenodd" clip-rule="evenodd" d="M159.374 129.249C159.885 129.691 160.188 130.327 160.208 131.002L161.105 160.768C167.887 164.469 177.765 170.372 186.86 176.886C191.691 180.346 196.339 184.005 200.197 187.622C203.115 190.357 205.668 193.149 207.497 195.882C214.158 190.075 225.801 175.184 229.935 151.054C230.012 150.605 230.215 150.187 230.519 149.849C233.846 146.149 236.72 141.635 239.18 136.565C239.513 135.878 240.152 135.389 240.902 135.247C241.652 135.105 242.425 135.327 242.986 135.845C244.471 137.215 246.444 138.63 248.758 140.288C249.488 140.812 250.251 141.359 251.044 141.937C254.247 144.272 257.768 147.003 260.72 150.298C263.686 153.609 266.149 157.567 267.139 162.372C268.051 166.798 267.673 171.754 265.546 177.337C276.615 188.632 283.125 203.576 287.73 219.532C290.96 230.723 293.306 242.635 295.595 254.262C296.669 259.712 297.73 265.1 298.863 270.321C300.526 277.975 302.351 285.32 304.61 292.131C306.368 297.429 308.379 302.379 310.765 306.88C311.044 306.93 311.321 306.984 311.597 307.044C318.603 308.565 323.903 313.325 327.744 320.172C329.56 323.409 329.996 327.301 329.633 331.236C329.269 335.188 328.083 339.377 326.436 343.392C323.162 351.375 317.881 359.113 312.843 363.366C310.807 365.084 308.522 365.908 306.126 365.842C304.031 365.784 302.026 365.051 300.183 363.935H221.533C219.67 367.446 217.264 370.607 214.411 373.015C209.592 377.083 203.784 375.94 198.834 372.878C195.635 370.899 192.515 367.986 189.701 364.61C185.638 366.735 180.892 368.563 175.653 370.112C154.946 376.236 125.758 378.228 98.1519 376.281C70.6303 374.34 44.1072 368.445 28.9962 358.371C9.14259 345.135 0.742369 327.858 0.0474185 309.08C-0.641525 290.464 6.24188 270.583 16.4504 251.863C23.8523 238.291 38.6062 221.51 53.4837 206.245C66.4607 192.929 79.6979 180.601 88.5697 172.338C89.6273 171.353 90.6228 170.426 91.5485 169.562C91.9793 163.146 94.385 156.557 99.7421 150.236C100.301 148.851 101.402 147.674 102.563 146.702C103.943 145.546 105.729 144.418 107.759 143.331C111.826 141.154 117.167 138.988 122.942 137.014C134.487 133.068 148.124 129.77 157.519 128.678C158.19 128.6 158.863 128.807 159.374 129.249ZM186.726 360.714C186.268 360.059 185.82 359.394 185.385 358.718C185.278 358.552 185.172 358.386 185.067 358.219C181.929 353.249 179.464 347.808 178.25 342.827C178.068 342.08 177.913 341.335 177.787 340.596C177.354 338.056 177.275 335.589 177.711 333.37C177.77 333.072 177.838 332.777 177.916 332.487C178.594 329.926 180.032 327.718 182.574 326.315C190.619 321.876 197.795 319.951 204.086 320.512C203.61 317.269 202.688 313.742 201.216 310.969C200.246 309.141 199.121 307.803 197.887 307.021C196.722 306.283 195.326 305.951 193.507 306.344C192.136 306.641 190.464 307.365 188.464 308.754C188 309.077 187.542 309.394 187.092 309.707C180.545 314.25 175.501 317.75 171.821 321.778C168.021 325.938 165.69 330.669 165.065 337.792C164.532 343.861 165.168 350.046 167.027 355.115C168.771 359.871 171.499 363.431 175.139 365.229C179.495 363.9 183.387 362.391 186.726 360.714ZM169.058 366.896C166.086 364.266 163.936 360.702 162.497 356.776C160.347 350.913 159.677 343.995 160.258 337.37C160.975 329.198 163.74 323.471 168.259 318.524C172.322 314.075 177.812 310.269 184.173 305.859C184.337 305.745 184.501 305.632 184.666 305.518L103.6 296.808C102.275 296.666 101.317 295.476 101.459 294.152C101.601 292.827 102.791 291.868 104.116 292.011L185.501 300.755C183.492 298.405 181.641 295.588 179.935 292.508C176.517 286.335 173.494 278.748 170.889 270.799C165.946 255.717 162.418 239.056 160.565 227.631C149.236 226.193 137.291 221.944 128.104 218.025C123.237 215.949 119.098 213.947 116.174 212.461C114.712 211.718 113.551 211.104 112.753 210.674C112.354 210.459 112.046 210.29 111.835 210.174C111.775 210.14 111.722 210.111 111.678 210.086C111.646 210.068 111.618 210.053 111.594 210.04L111.531 210.004L111.514 209.994L111.509 209.991C111.508 209.991 111.506 209.99 112.695 207.891C111.092 209.694 111.092 209.694 111.091 209.693L111.07 209.675L111.021 209.63C110.98 209.593 110.921 209.539 110.845 209.469C110.694 209.33 110.478 209.128 110.206 208.866C109.662 208.342 108.893 207.579 107.975 206.604C106.141 204.656 103.698 201.85 101.257 198.406C97.125 192.576 92.8491 184.709 91.7479 175.972C82.8729 184.238 69.7785 196.438 56.939 209.612C42.6109 224.314 28.8028 240.029 21.5025 252.718C27.0861 258.855 37.2159 266.012 49.1098 270.911C61.8084 276.142 76.1004 278.626 88.6525 274.92C89.9303 274.543 91.2721 275.272 91.6494 276.55C92.0267 277.828 91.2968 279.17 90.019 279.547C76.0079 283.685 60.5164 280.828 47.2722 275.372C35.629 270.577 25.3997 263.641 19.0817 257.18C9.99077 274.6 4.26081 292.467 4.86902 308.901C5.50627 326.121 13.1003 341.975 31.6725 354.357C45.691 363.702 71.1471 369.539 98.4914 371.468C123.453 373.229 149.51 371.7 169.058 366.896ZM112.695 207.891L111.091 209.693C111.218 209.806 111.358 209.906 111.506 209.99L112.695 207.891ZM114.113 205.92C114.131 205.93 114.15 205.94 114.17 205.951C114.366 206.06 114.66 206.221 115.043 206.427C115.809 206.84 116.935 207.436 118.359 208.16C121.209 209.607 125.249 211.562 129.997 213.587C139.539 217.657 151.763 221.931 162.901 223.041C171.215 223.87 178.51 222.893 183.683 219.213L203.82 199.077C202.309 196.678 199.937 193.991 196.897 191.142C193.246 187.719 188.78 184.196 184.051 180.809C174.592 174.034 164.231 167.911 157.596 164.355C156.835 163.947 156.35 163.164 156.324 162.301L155.466 133.816C146.653 135.114 134.763 138.072 124.503 141.579C118.849 143.512 113.78 145.58 110.036 147.585C108.16 148.59 106.69 149.539 105.661 150.401C104.571 151.313 104.251 151.901 104.192 152.112C104.096 152.455 103.925 152.772 103.692 153.042C98.5447 158.982 96.5207 165.01 96.3186 170.744C96.3184 170.75 96.3182 170.756 96.318 170.762C96.31 170.996 96.3049 171.229 96.3028 171.461C96.2203 180.511 100.586 189.116 105.194 195.616C107.476 198.837 109.768 201.47 111.488 203.296C112.346 204.208 113.059 204.915 113.552 205.39C113.796 205.624 113.986 205.802 114.113 205.92ZM206.621 203.099L220.132 219.988C221.101 242.195 223.951 275.544 229.417 304.459C232.18 319.077 235.631 332.671 239.893 343.144C242.023 348.38 244.391 352.926 247.038 356.45C247.754 357.402 248.499 358.293 249.277 359.11H237.41C234.228 354.723 230.337 346.868 226.07 336.677C221.526 325.822 216.657 312.57 211.873 298.612C202.523 271.334 193.531 241.468 187.957 221.763L206.621 203.099ZM183.799 224.788C178.473 227.583 172.09 228.396 165.528 228.075C167.399 239.263 170.799 255.033 175.474 269.296C178.03 277.095 180.943 284.367 184.156 290.171C187.19 295.65 190.331 299.523 193.442 301.46C196.091 301.098 198.456 301.67 200.469 302.945C202.652 304.328 204.274 306.441 205.477 308.706C207.566 312.641 208.648 317.523 209.08 321.54C211.867 322.468 214.358 323.943 216.57 325.881C213.512 317.881 210.388 309.161 207.308 300.176C198.19 273.575 189.419 244.545 183.799 224.788ZM225.93 348.308C225.725 351.969 224.928 355.663 223.673 359.11H231.623C229.815 356.18 227.905 352.518 225.93 348.308ZM257.431 359.11H285.023C277.862 354.639 271.741 347.532 266.728 339.818C258.329 326.893 252.515 311.478 249.677 301.079C247.361 297.029 245.614 290.51 244.245 282.908C242.825 275.021 241.759 265.64 240.969 255.925C239.572 238.741 239.029 220.378 238.947 207.119C235.36 209.901 232.077 212.452 229.496 214.728C227.108 216.834 225.614 218.462 224.945 219.619C225.901 241.681 228.735 274.877 234.158 303.563C236.897 318.054 240.277 331.287 244.362 341.326C246.405 346.347 248.589 350.48 250.896 353.552C253.097 356.483 255.291 358.291 257.431 359.11ZM222.344 215.029C223.453 213.724 224.835 212.405 226.305 211.109C229.042 208.695 232.489 206.022 236.071 203.244L236.118 203.207L236.122 203.204L236.127 203.2L236.13 203.198L236.137 203.192C237.364 202.241 238.61 201.274 239.861 200.293C244.795 196.422 249.707 192.395 253.529 188.405C257.42 184.341 259.83 180.667 260.326 177.539C260.357 177.341 260.413 177.148 260.492 176.964C262.836 171.508 263.178 167.057 262.414 163.346C261.645 159.612 259.709 156.401 257.126 153.518C254.53 150.619 251.353 148.133 248.202 145.836C247.517 145.337 246.824 144.84 246.136 144.347C244.745 143.351 243.373 142.368 242.128 141.405C239.943 145.494 237.438 149.266 234.572 152.55C230.082 177.757 217.716 193.568 210.234 199.891L222.344 215.029ZM243.761 203.364C243.756 216.661 244.257 236.821 245.778 255.534C246.561 265.17 247.612 274.38 248.994 282.053C249.155 282.945 249.319 283.811 249.487 284.652C249.979 282.454 250.706 280.461 251.647 278.661C254.506 273.193 259.181 269.82 264.493 267.911C273.531 264.663 284.703 265.533 293.334 267.516C292.463 263.344 291.635 259.137 290.806 254.925C288.54 243.413 286.267 231.861 283.094 220.87C278.831 206.096 273.039 192.74 263.769 182.487C262.283 185.697 259.814 188.818 257.013 191.742C253.187 195.737 248.419 199.688 243.761 203.364ZM294.46 272.765C286.024 270.512 274.69 269.373 266.125 272.451C261.691 274.045 258.104 276.724 255.923 280.897C253.733 285.085 252.797 291.084 254.28 299.615C257.004 309.676 262.665 324.711 270.774 337.189C277.246 347.148 284.953 354.996 293.611 357.897C292.39 356.381 291.235 354.717 290.163 352.967C287.65 348.862 285.501 344.136 283.968 339.402C282.007 338.446 279.713 336.475 277.47 333.4C274.637 329.516 271.722 323.66 269.491 315.149C268.25 310.417 268.93 306.326 271.022 302.943C273.064 299.641 276.318 297.224 279.883 295.459C285.845 292.507 293.211 291.117 299.072 290.65C297.308 284.924 295.819 278.914 294.46 272.765ZM300.617 295.378C294.975 295.714 287.65 296.997 282.024 299.783C278.919 301.32 276.524 303.22 275.126 305.481C273.778 307.66 273.228 310.377 274.158 313.926C276.27 321.979 278.96 327.255 281.368 330.557C281.577 330.842 281.782 331.112 281.984 331.366C281.517 328.529 281.338 325.782 281.527 323.277C281.863 318.823 283.431 314.563 287.306 312.425C293.848 308.816 299.814 306.868 305.198 306.568C303.478 303.021 301.968 299.273 300.617 295.378ZM289.637 316.65C287.853 317.634 286.623 319.866 286.338 323.64C286.058 327.354 286.76 332.02 288.234 336.881C289.668 341.611 291.791 346.385 294.278 350.447C296.787 354.544 299.561 357.743 302.221 359.514C303.736 360.523 305.09 360.986 306.26 361.019C307.373 361.049 308.524 360.698 309.731 359.679C314.026 356.053 318.909 349.032 321.972 341.562C323.494 337.851 324.52 334.14 324.828 330.793C325.139 327.428 324.708 324.621 323.536 322.532C320.157 316.509 315.855 312.906 310.573 311.759C308.23 311.251 305.597 311.203 302.647 311.714C302.041 311.818 301.422 311.947 300.79 312.099C298.781 312.583 296.635 313.313 294.344 314.315C292.838 314.973 291.27 315.749 289.637 316.65ZM182.574 333.741C183.001 332.189 183.815 331.141 184.905 330.54C193.838 325.611 200.836 324.425 206.251 325.743C211.34 326.982 215.51 330.55 218.804 336.422C222.4 342.832 221.7 352.482 217.872 360.481C216.163 364.05 213.897 367.135 211.299 369.328C208.791 371.445 205.501 371.328 201.372 368.775C198.286 366.866 195.106 363.773 192.231 360.056C192.228 360.053 192.226 360.05 192.223 360.046C191.268 358.811 190.355 357.518 189.496 356.191C189.478 356.162 189.459 356.133 189.441 356.105C186.4 351.386 184.047 346.235 182.938 341.684C182.782 341.042 182.652 340.42 182.549 339.819C182.547 339.808 182.545 339.797 182.543 339.786C182.112 337.255 182.157 335.258 182.574 333.741ZM80.3106 216.924C81.1443 217.326 81.6742 218.171 81.6742 219.096V227.352L94.2652 229.239C95.3943 229.408 96.2502 230.346 96.3161 231.486C96.3821 232.625 95.6401 233.655 94.5381 233.954L81.6742 237.436V250.092C81.6742 251.051 81.1062 251.919 80.2274 252.303C79.3487 252.687 78.326 252.513 77.6224 251.862L66.486 241.547L48.3895 246.446C47.2847 246.745 46.1219 246.227 45.6058 245.205C45.0898 244.184 45.3625 242.94 46.2587 242.228L57.5439 233.265L51.0081 227.212C50.2316 226.492 50.0146 225.351 50.473 224.397C50.9314 223.443 51.9582 222.899 53.005 223.056L67.6369 225.249L77.7613 217.207C78.4863 216.631 79.4768 216.521 80.3106 216.924ZM62.4693 229.353L60.0251 228.987L61.3664 230.229L62.4693 229.353ZM64.9478 233.546L68.9957 230.331L76.8493 231.508V233.743L67.8043 236.192L64.9478 233.546ZM61.1252 236.582L58.4172 238.733L62.3098 237.679L61.1252 236.582ZM71.9806 240.06L76.8493 244.569V238.742L71.9806 240.06ZM81.6742 232.437L82.1646 232.304L81.6742 232.231V232.437ZM76.8493 226.629L74.1632 226.227L76.8493 224.093V226.629Z" fill="black"/>
<path d="M253.884 73.9852C242.118 75.2925 215.057 73.9852 200.938 58.2975C198.977 71.3706 187.604 95.1636 157.797 85.751C156.589 93.9627 156.381 105.476 158.736 117.126C162.753 137.006 174.232 161.205 200.938 166.15C214.363 168.636 224.596 160.043 232.313 151.462C235.826 147.555 238.817 142.839 241.35 137.618C250.81 118.121 253.884 91.594 253.884 73.9852Z" fill="#F9F9F9"/>
<path d="M157.797 85.751C151.914 86.4046 140.149 86.5353 140.149 97.5167C140.149 108.498 152.54 116.473 158.736 117.126C156.381 105.476 156.589 93.9627 157.797 85.751Z" fill="#F9F9F9"/>
<path d="M200.938 166.15C174.232 161.205 162.753 137.006 158.736 117.126L157.797 131.075L158.736 162.228C172.15 169.419 200.546 186.937 206.821 199.487C213.358 194.924 227.607 178.93 232.313 151.462C224.596 160.043 214.363 168.636 200.938 166.15Z" fill="#F9F9F9"/>
<path d="M190.315 361.522C197.345 370.613 206.453 376.576 212.855 371.172C215.764 368.716 218.222 365.335 220.048 361.522C224.078 353.102 225.021 342.573 220.908 335.242C217.39 328.971 212.742 324.84 206.821 323.399C200.591 321.883 192.951 323.345 183.739 328.428C175.646 332.893 181.254 349.805 190.315 361.522Z" fill="#F9F9F9"/>
<path d="M308.718 309.036C303.046 308.5 296.331 310.201 288.471 314.538C282.813 317.66 282.875 327.523 285.925 337.581C288.907 347.415 294.745 357.436 300.884 361.522C304.414 363.872 308.044 364.26 311.287 361.522C320.62 353.644 331.615 332.003 325.64 321.352C321.579 314.112 316.01 309.725 308.718 309.036Z" fill="#F9F9F9"/>
<path d="M288.471 314.538C296.563 310.073 303.441 308.402 309.217 309.089C306.492 304.15 304.247 298.7 302.32 292.89C290.346 293.205 267.482 297.974 271.825 314.538C276.167 331.101 283.034 336.801 285.925 337.581C282.875 327.523 282.813 317.66 288.471 314.538Z" fill="black"/>
<path d="M190.315 361.522C181.254 349.805 175.646 332.893 183.739 328.428C192.951 323.345 200.591 321.883 206.821 323.399C206.273 315.219 202.711 301.886 192.997 303.986C191.235 304.367 189.272 305.255 187.087 306.773C172.854 316.664 164.004 322.286 162.661 337.581C161.547 350.275 165.274 363.787 174.969 367.799C180.89 366.048 186.087 363.956 190.315 361.522Z" fill="black"/>
<path d="M200.938 58.2975C215.057 73.9852 242.118 75.2925 253.884 73.9852C300.948 59.8663 301.613 44.0185 285.925 25.7162C272.833 10.4419 253.884 4.70032 253.884 4.70032C253.884 4.70032 187.087 -9.58452 174.969 33.2341L174.958 33.2378C171.019 34.5508 156.222 39.4827 149.953 50.4536C143.679 61.435 152.568 78.5608 157.797 85.751C187.604 95.1636 198.977 71.3706 200.938 58.2975Z" fill="black"/>
<path fill-rule="evenodd" clip-rule="evenodd" d="M206.821 199.487L185.251 221.057C196.347 260.464 222.074 343.727 236.212 361.522H257.014C233.885 353.802 224.373 263.355 222.508 219.096L206.821 199.487Z" fill="black"/>
<path d="M68.3163 227.79L61.2458 233.406L67.1452 238.87L79.2617 235.59V229.43L68.3163 227.79Z" fill="black"/>
<path d="M68.3163 227.79L79.2617 229.43V219.096L68.3163 227.79Z" fill="black"/>
<path d="M61.2458 233.406L68.3163 227.79L52.6474 225.442L61.2458 233.406Z" fill="black"/>
<path d="M67.1452 238.87L61.2458 233.406L47.7591 244.117L67.1452 238.87Z" fill="black"/>
<path d="M79.2617 235.59L67.1452 238.87L79.2617 250.092V235.59Z" fill="black"/>
<path d="M79.2617 229.43V235.59L93.9077 231.625L79.2617 229.43Z" fill="black"/>
<path fill-rule="evenodd" clip-rule="evenodd" d="M219.206 5.31122C201.267 7.06544 182.926 13.9775 177.29 33.891C177.073 34.6594 176.489 35.2704 175.732 35.5228L175.72 35.5265C173.774 36.1754 169.27 37.6791 164.502 40.332C159.703 43.0026 154.87 46.7116 152.048 51.6505C149.42 56.2502 149.835 62.4463 151.859 68.7904C153.737 74.6719 156.848 80.1929 159.287 83.6854C172.995 87.7876 182.136 84.3585 188.157 78.6986C194.461 72.7733 197.625 64.1234 198.552 57.9396C198.691 57.0163 199.35 56.2558 200.244 55.9871C201.138 55.7184 202.107 55.9897 202.731 56.6837C209.313 63.9963 219.046 68.0837 228.795 70.1547C238.397 72.1944 247.728 72.2153 253.403 71.6109C264.964 68.1307 273.565 64.5797 279.735 60.9771C285.959 57.3437 289.534 53.7612 291.287 50.3232C294.635 43.7607 291.875 36.3643 284.094 27.2862C277.812 19.9581 270.085 14.8755 263.874 11.6166C260.778 9.99173 258.082 8.83239 256.169 8.082C255.213 7.70705 254.454 7.4349 253.94 7.25837C253.683 7.17012 253.488 7.10582 253.36 7.06457C253.329 7.05446 253.301 7.04574 253.278 7.03839L253.213 7.02491C253.094 7.00092 252.915 6.96517 252.678 6.91982C252.204 6.82912 251.5 6.7001 250.596 6.55006C248.787 6.2499 246.179 5.86621 243.009 5.53689C236.657 4.87712 228.101 4.44141 219.206 5.31122ZM253.884 4.70032C254.584 2.39153 254.585 2.39174 254.585 2.39197L254.592 2.39409L254.608 2.39879L254.659 2.41464C254.702 2.42809 254.763 2.44734 254.841 2.47249C254.997 2.5228 255.221 2.59677 255.508 2.69535C256.082 2.89247 256.906 3.18822 257.931 3.5902C259.979 4.39367 262.839 5.62436 266.116 7.3442C272.653 10.7746 280.946 16.1999 287.757 24.1462C295.663 33.3704 300.414 43.049 295.585 52.5157C293.251 57.0923 288.815 61.2629 282.168 65.1439C275.829 68.8447 267.316 72.3767 256.287 75.7762C256.091 93.0193 253.071 117.881 244.315 136.986C245.579 138.009 247.079 139.085 248.758 140.288C249.488 140.812 250.251 141.359 251.044 141.937C254.247 144.272 257.768 147.003 260.72 150.298C263.686 153.609 266.149 157.567 267.139 162.372C268.051 166.798 267.673 171.754 265.546 177.337C276.615 188.632 283.125 203.576 287.73 219.532C290.96 230.723 293.306 242.635 295.595 254.262C296.669 259.712 297.73 265.1 298.863 270.321C300.526 277.975 302.351 285.32 304.61 292.131C306.368 297.429 308.379 302.379 310.765 306.88C311.044 306.93 311.321 306.984 311.597 307.044C318.603 308.565 323.903 313.325 327.744 320.172C329.56 323.409 329.996 327.301 329.633 331.236C329.269 335.188 328.083 339.377 326.436 343.392C323.162 351.375 317.881 359.113 312.843 363.366C310.807 365.084 308.522 365.908 306.126 365.842C304.031 365.784 302.026 365.051 300.183 363.935H221.533C219.67 367.446 217.264 370.607 214.411 373.015C209.592 377.083 203.784 375.94 198.834 372.878C195.635 370.899 192.515 367.986 189.701 364.61C185.638 366.735 180.892 368.563 175.653 370.112C154.946 376.236 125.758 378.228 98.1519 376.281C70.6303 374.34 44.1072 368.445 28.9962 358.371C9.14259 345.135 0.742369 327.858 0.0474185 309.08C-0.641525 290.464 6.24188 270.583 16.4504 251.863C23.8523 238.291 38.6062 221.51 53.4837 206.245C66.4606 192.929 79.6978 180.601 88.5696 172.338C89.6272 171.353 90.6228 170.426 91.5485 169.562C91.9789 163.152 94.3812 156.561 99.7421 150.236C100.301 148.851 101.402 147.674 102.563 146.702C103.943 145.546 105.729 144.418 107.759 143.331C111.826 141.154 117.167 138.988 122.942 137.014C133.693 133.339 146.259 130.226 155.523 128.934L156.187 119.074C152.813 118.138 148.847 115.963 145.515 112.996C141.353 109.291 137.736 103.948 137.736 97.5167C137.736 94.313 138.605 91.7141 140.161 89.6745C141.694 87.6637 143.758 86.3756 145.862 85.5245C148.353 84.5169 151.153 84.0416 153.567 83.7561C151.307 80.0948 148.88 75.3239 147.263 70.2576C145.105 63.4959 144.212 55.6384 147.859 49.2567C151.306 43.2248 157.005 38.9824 162.156 36.116C166.501 33.6982 170.622 32.1696 173.014 31.3473C179.895 9.4073 200.582 2.28446 218.736 0.509221C228.056 -0.402084 236.956 0.0572571 243.507 0.737813C246.789 1.07867 249.494 1.47645 251.385 1.79023C252.331 1.94717 253.074 2.08324 253.585 2.18088C253.84 2.2297 254.037 2.26893 254.172 2.29638L254.328 2.32845L254.371 2.33735L254.387 2.34073C254.388 2.341 254.389 2.34121 253.884 4.70032ZM155.024 88.4546C152.571 88.7093 149.963 89.0705 147.671 89.9974C146.099 90.6334 144.853 91.4778 143.997 92.6005C143.163 93.6943 142.561 95.2298 142.561 97.5167C142.561 102.066 145.14 106.202 148.723 109.393C151.01 111.429 153.526 112.919 155.688 113.805C154.228 104.554 154.258 95.6034 155.024 88.4546ZM155.466 133.816C146.653 135.114 134.763 138.072 124.503 141.579C118.849 143.512 113.78 145.58 110.036 147.585C108.16 148.59 106.69 149.539 105.661 150.401C104.571 151.313 104.251 151.901 104.192 152.112C104.096 152.455 103.925 152.772 103.692 153.042C98.5505 158.976 96.5219 165.001 96.3188 170.74C96.3187 170.743 96.3186 170.746 96.3185 170.75C96.3101 170.987 96.3049 171.225 96.3028 171.461C96.248 177.475 98.1571 183.309 100.83 188.491C103.5 193.665 106.874 198.078 109.599 201.21C110.958 202.771 112.146 204.002 112.989 204.838C113.41 205.256 113.744 205.575 113.969 205.786C114.024 205.837 114.072 205.881 114.113 205.92C114.131 205.93 114.15 205.94 114.17 205.951C114.366 206.06 114.66 206.221 115.043 206.427C115.809 206.84 116.935 207.436 118.359 208.16C121.209 209.607 125.249 211.562 129.997 213.587C139.539 217.657 151.763 221.931 162.901 223.041C171.215 223.87 178.51 222.893 183.683 219.213L203.82 199.077C202.309 196.678 199.937 193.991 196.897 191.142C193.246 187.719 188.78 184.196 184.051 180.809C174.592 174.034 164.231 167.911 157.596 164.355C156.835 163.947 156.35 163.164 156.324 162.301L155.466 133.816ZM206.621 203.099L220.132 219.988C221.101 242.195 223.951 275.544 229.417 304.459C232.18 319.077 235.631 332.671 239.893 343.144C242.023 348.38 244.391 352.926 247.038 356.45C247.754 357.402 248.499 358.293 249.277 359.11H237.41C234.228 354.723 230.337 346.868 226.07 336.677C221.526 325.822 216.657 312.57 211.873 298.612C202.523 271.334 193.531 241.468 187.957 221.763L206.621 203.099ZM183.8 224.788C178.473 227.583 172.09 228.396 165.528 228.075C167.399 239.263 170.799 255.033 175.474 269.296C178.03 277.095 180.943 284.367 184.156 290.171C187.19 295.65 190.331 299.523 193.442 301.46C196.091 301.098 198.456 301.67 200.469 302.945C202.652 304.328 204.274 306.441 205.477 308.706C207.566 312.641 208.648 317.523 209.08 321.54C211.867 322.468 214.358 323.943 216.57 325.881C213.512 317.881 210.388 309.161 207.308 300.176C198.19 273.575 189.419 244.545 183.8 224.788ZM225.93 348.308C225.725 351.969 224.928 355.663 223.673 359.11H231.623C229.815 356.18 227.905 352.518 225.93 348.308ZM204.086 320.512C203.61 317.269 202.688 313.742 201.216 310.969C200.246 309.142 199.121 307.803 197.887 307.021C196.722 306.283 195.326 305.951 193.507 306.344C192.136 306.641 190.464 307.365 188.464 308.754C188 309.077 187.542 309.394 187.092 309.707C180.544 314.25 175.501 317.75 171.821 321.778C168.021 325.938 165.69 330.669 165.065 337.792C164.532 343.861 165.168 350.046 167.027 355.115C168.771 359.871 171.499 363.431 175.139 365.229C179.495 363.9 183.387 362.391 186.726 360.714C186.268 360.06 185.82 359.394 185.385 358.719C185.385 358.718 185.385 358.719 185.385 358.719C185.278 358.553 185.172 358.386 185.067 358.219C181.929 353.249 179.464 347.808 178.25 342.827C178.068 342.08 177.913 341.335 177.787 340.596C177.354 338.056 177.275 335.589 177.711 333.37C177.77 333.071 177.838 332.777 177.916 332.486C178.594 329.926 180.032 327.718 182.574 326.315C190.619 321.877 197.795 319.951 204.086 320.512ZM182.574 333.741C183 332.19 183.815 331.141 184.905 330.54C193.838 325.611 200.836 324.425 206.251 325.743C211.34 326.982 215.51 330.55 218.804 336.422C222.4 342.832 221.7 352.482 217.872 360.481C216.163 364.05 213.897 367.135 211.299 369.328C208.791 371.445 205.501 371.329 201.372 368.775C198.286 366.866 195.106 363.773 192.231 360.056C192.228 360.053 192.226 360.05 192.223 360.046C191.268 358.811 190.355 357.518 189.496 356.191C189.477 356.162 189.459 356.133 189.441 356.105C186.4 351.386 184.047 346.235 182.938 341.684C182.782 341.042 182.652 340.42 182.549 339.819C182.18 337.674 182.149 335.806 182.445 334.3C182.483 334.107 182.526 333.92 182.574 333.741ZM169.058 366.896C166.086 364.266 163.936 360.702 162.497 356.776C160.347 350.913 159.677 343.995 160.258 337.37C160.975 329.198 163.74 323.471 168.259 318.524C172.322 314.076 177.812 310.269 184.173 305.859C184.337 305.745 184.501 305.632 184.666 305.518L103.6 296.808C102.275 296.666 101.317 295.476 101.459 294.152C101.601 292.827 102.791 291.868 104.116 292.011L185.501 300.755C183.492 298.405 181.641 295.588 179.935 292.508C176.517 286.335 173.494 278.748 170.889 270.799C165.946 255.717 162.418 239.056 160.565 227.631C149.236 226.193 137.291 221.944 128.104 218.025C123.237 215.949 119.098 213.947 116.174 212.461C114.712 211.718 113.551 211.104 112.753 210.674C112.354 210.459 112.046 210.29 111.835 210.174C111.73 210.115 111.65 210.07 111.594 210.04L111.531 210.004L111.509 209.991C111.508 209.991 111.506 209.99 112.695 207.891C111.092 209.694 111.092 209.693 111.091 209.693L111.088 209.69L111.081 209.684L111.057 209.662L110.974 209.587C110.903 209.523 110.802 209.43 110.673 209.309C110.415 209.068 110.047 208.717 109.59 208.263C108.677 207.357 107.407 206.04 105.96 204.378C103.075 201.062 99.4443 196.328 96.5423 190.703C94.2775 186.312 92.4209 181.311 91.7479 175.972C82.8729 184.237 69.7785 196.438 56.939 209.612C42.6109 224.314 28.8028 240.029 21.5025 252.718C27.0861 258.855 37.2159 266.012 49.1098 270.911C61.8084 276.142 76.1004 278.626 88.6525 274.92C89.9303 274.543 91.2721 275.272 91.6494 276.55C92.0267 277.828 91.2968 279.17 90.019 279.547C76.0079 283.685 60.5164 280.828 47.2722 275.372C35.629 270.577 25.3997 263.641 19.0817 257.18C9.99077 274.6 4.26081 292.467 4.86902 308.901C5.50627 326.121 13.1003 341.975 31.6725 354.357C45.691 363.702 71.1471 369.539 98.4914 371.468C123.453 373.229 149.509 371.7 169.058 366.896ZM112.695 207.891L111.091 209.693C111.218 209.806 111.358 209.906 111.506 209.99L112.695 207.891ZM257.431 359.11H285.023C277.862 354.639 271.741 347.532 266.728 339.818C258.329 326.893 252.515 311.478 249.677 301.079C247.361 297.029 245.614 290.51 244.245 282.908C242.825 275.021 241.759 265.64 240.969 255.925C239.572 238.741 239.029 220.378 238.947 207.119C235.36 209.901 232.077 212.452 229.496 214.728C227.108 216.834 225.614 218.462 224.945 219.619C225.901 241.681 228.735 274.877 234.158 303.563C236.897 318.054 240.277 331.287 244.362 341.326C246.405 346.347 248.589 350.48 250.896 353.552C253.097 356.483 255.291 358.291 257.431 359.11ZM222.344 215.029C223.453 213.724 224.835 212.405 226.305 211.109C229.042 208.695 232.488 206.022 236.07 203.245L236.118 203.207C237.351 202.251 238.604 201.279 239.861 200.293C244.795 196.422 249.707 192.395 253.529 188.405C257.42 184.341 259.83 180.667 260.326 177.539C260.357 177.341 260.413 177.148 260.492 176.964C262.836 171.508 263.178 167.057 262.414 163.346C261.645 159.612 259.709 156.401 257.126 153.518C254.53 150.619 251.353 148.133 248.202 145.836C247.517 145.337 246.824 144.84 246.136 144.347C244.745 143.351 243.373 142.368 242.128 141.405C239.943 145.494 237.438 149.266 234.572 152.55C230.082 177.757 217.716 193.568 210.234 199.891L222.344 215.029ZM207.497 195.882C213.392 190.742 223.19 178.488 228.231 159.011C221.072 165.447 211.898 170.633 200.499 168.523C178.417 164.433 166.365 147.904 160.216 131.245L161.105 160.768C167.887 164.469 177.765 170.372 186.86 176.886C191.691 180.346 196.339 184.005 200.197 187.622C203.115 190.357 205.668 193.149 207.497 195.882ZM243.761 203.364C243.756 216.661 244.257 236.821 245.778 255.534C246.561 265.17 247.612 274.38 248.994 282.053C249.155 282.945 249.319 283.811 249.487 284.652C249.979 282.454 250.706 280.461 251.647 278.661C254.506 273.193 259.181 269.82 264.493 267.911C273.531 264.663 284.703 265.533 293.334 267.516C292.463 263.344 291.635 259.137 290.806 254.925C288.54 243.413 286.267 231.861 283.094 220.87C278.831 206.096 273.039 192.74 263.769 182.487C262.283 185.697 259.814 188.818 257.013 191.742C253.187 195.737 248.419 199.688 243.761 203.364ZM294.46 272.765C286.024 270.512 274.69 269.373 266.125 272.451C261.691 274.045 258.104 276.724 255.923 280.897C253.733 285.085 252.797 291.084 254.28 299.615C257.004 309.676 262.665 324.711 270.774 337.189C277.246 347.148 284.953 354.996 293.611 357.897C292.39 356.381 291.235 354.717 290.163 352.967C287.65 348.862 285.501 344.135 283.968 339.402C282.007 338.446 279.713 336.475 277.47 333.4C274.637 329.516 271.722 323.66 269.491 315.15C268.25 310.417 268.93 306.326 271.022 302.943C273.064 299.641 276.318 297.224 279.883 295.459C285.845 292.507 293.211 291.117 299.072 290.65C297.308 284.924 295.819 278.914 294.46 272.765ZM300.617 295.378C294.975 295.714 287.65 296.997 282.024 299.783C278.919 301.32 276.524 303.22 275.126 305.481C273.778 307.66 273.228 310.377 274.158 313.926C276.27 321.979 278.96 327.255 281.368 330.557C281.577 330.842 281.782 331.112 281.984 331.367C281.517 328.529 281.338 325.782 281.527 323.277C281.863 318.823 283.431 314.563 287.306 312.425C293.848 308.816 299.814 306.868 305.198 306.568C303.478 303.021 301.968 299.273 300.617 295.378ZM289.637 316.65C287.853 317.634 286.623 319.866 286.338 323.64C286.058 327.354 286.76 332.02 288.234 336.881C289.668 341.611 291.791 346.385 294.278 350.447C296.787 354.544 299.561 357.743 302.221 359.514C303.736 360.523 305.09 360.986 306.26 361.019C307.373 361.049 308.524 360.698 309.731 359.679C314.026 356.053 318.909 349.032 321.972 341.562C323.494 337.851 324.52 334.14 324.828 330.793C325.139 327.428 324.708 324.621 323.536 322.532C320.157 316.509 315.855 312.906 310.573 311.759C308.565 311.323 306.344 311.226 303.892 311.529C299.806 312.033 295.08 313.647 289.637 316.65ZM159.834 88.8471C158.997 96.5437 159.06 106.55 161.1 116.648C165.061 136.245 176.178 159.112 201.378 163.778C213.426 166.009 222.844 158.385 230.519 149.849C233.846 146.149 236.72 141.635 239.18 136.565C247.958 118.474 251.156 93.9796 251.449 76.6184C245.318 77.0205 236.671 76.7602 227.792 74.8743C218.933 72.9923 209.622 69.4436 202.391 63.1099C200.729 69.3577 197.316 76.7109 191.462 82.2141C184.414 88.84 174.073 92.5421 159.834 88.8471ZM253.884 4.70032L254.387 2.34073C254.452 2.35478 254.521 2.37249 254.585 2.39197L253.884 4.70032ZM80.3106 216.924C81.1443 217.326 81.6742 218.171 81.6742 219.096V227.352L94.2652 229.239C95.3943 229.408 96.2502 230.346 96.3161 231.486C96.3821 232.625 95.6401 233.655 94.5381 233.954L81.6742 237.436V250.092C81.6742 251.051 81.1062 251.919 80.2274 252.303C79.3487 252.687 78.326 252.514 77.6224 251.862L66.486 241.547L48.3895 246.446C47.2847 246.745 46.1219 246.227 45.6058 245.205C45.0898 244.184 45.3625 242.94 46.2587 242.228L57.5439 233.265L51.0081 227.212C50.2316 226.492 50.0146 225.351 50.473 224.397C50.9314 223.443 51.9582 222.899 53.005 223.056L67.6369 225.249L77.7613 217.207C78.4863 216.631 79.4768 216.521 80.3106 216.924ZM62.4693 229.353L60.0252 228.987L61.3664 230.229L62.4693 229.353ZM64.9478 233.546L68.9956 230.331L76.8493 231.508V233.743L67.8044 236.192L64.9478 233.546ZM61.1252 236.582L58.4172 238.733L62.3098 237.679L61.1252 236.582ZM71.9806 240.06L76.8493 244.569V238.742L71.9806 240.06ZM81.6742 232.437L82.1646 232.305L81.6742 232.231V232.437ZM76.8493 226.629L74.1633 226.227L76.8493 224.093V226.629Z" fill="black"/>
<path fill-rule="evenodd" clip-rule="evenodd" d="M213.405 91.6728C214.621 92.2179 215.164 93.6453 214.619 94.8611L210.699 103.606C210.154 104.822 208.727 105.366 207.511 104.821C206.295 104.276 205.751 102.848 206.296 101.633L210.217 92.8874C210.762 91.6716 212.189 91.1278 213.405 91.6728ZM238.857 94.1439C240.041 94.756 240.504 96.2116 239.892 97.395L235.368 106.14C234.756 107.324 233.301 107.787 232.117 107.175C230.934 106.562 230.471 105.107 231.083 103.923L235.606 95.1783C236.218 93.9949 237.674 93.5318 238.857 94.1439ZM211.969 121.675C212.436 120.427 213.827 119.795 215.074 120.263L224.724 123.882C225.972 124.35 226.604 125.74 226.136 126.988C225.668 128.235 224.278 128.867 223.03 128.4L213.38 124.781C212.133 124.313 211.501 122.923 211.969 121.675ZM201.722 128.859C203.052 128.781 204.194 129.795 204.272 131.126C204.313 131.83 204.813 132.586 206.366 133.278C207.868 133.947 209.742 134.241 210.993 134.284C212.325 134.33 213.367 135.447 213.321 136.778C213.275 138.11 212.159 139.152 210.827 139.106C209.163 139.049 206.634 138.679 204.403 137.685C202.221 136.713 199.655 134.805 199.455 131.409C199.377 130.079 200.392 128.937 201.722 128.859Z" fill="black"/>
<path d="M401.473 230.098C400.934 224.433 405.389 219.533 411.079 219.533H451.71C456.288 219.533 460.236 222.749 461.161 227.233L477.991 308.794L488.54 359.918C489.776 365.905 485.203 371.518 479.089 371.518H423.716C418.741 371.518 414.581 367.735 414.11 362.783L401.473 230.098Z" fill="#9947FE"/>
<path d="M413.535 230.098C412.996 224.433 417.451 219.533 423.142 219.533H451.71C456.288 219.533 460.236 222.749 461.161 227.233L477.991 308.794L488.54 359.918C489.776 365.905 485.203 371.518 479.089 371.518H435.778C430.803 371.518 426.644 367.735 426.172 362.783L413.535 230.098Z" fill="#9947FE"/>
<path d="M414.11 362.783C414.581 367.735 418.741 371.518 423.716 371.518H381.469C376.639 371.518 372.724 367.602 372.724 362.772C372.724 357.943 376.639 354.027 381.469 354.027H413.276L414.11 362.783Z" fill="#9947FE"/>
<path d="M512.646 139.922H314.852C308.19 139.922 302.79 145.323 302.79 151.984V296.732C302.79 303.393 308.19 308.794 314.852 308.794H408.968L401.473 230.098C400.934 224.433 405.389 219.533 411.079 219.533H423.142H451.71C456.288 219.533 460.236 222.749 461.161 227.233L477.991 308.794H512.646C519.308 308.794 524.708 303.393 524.708 296.732V151.984C524.708 145.323 519.308 139.922 512.646 139.922Z" fill="#9947FE"/>
<path d="M302.79 296.732V151.984C302.79 145.323 308.19 139.922 314.852 139.922H301.556C294.895 139.922 289.494 145.323 289.494 151.984V296.732C289.494 303.393 294.895 308.794 301.556 308.794H314.852C308.19 308.794 302.79 303.393 302.79 296.732Z" fill="#9947FE"/>
<path fill-rule="evenodd" clip-rule="evenodd" d="M287.506 151.472C287.506 143.477 293.986 136.997 301.98 136.997H513.07C521.064 136.997 527.545 143.477 527.545 151.472V296.219C527.545 304.213 521.064 310.693 513.07 310.693H481.376L491.327 358.917C492.871 366.401 487.155 373.417 479.513 373.417H381.893C375.731 373.417 370.735 368.422 370.735 362.259C370.735 356.097 375.731 351.102 381.893 351.102H411.047L407.198 310.693H301.98C293.986 310.693 287.506 304.213 287.506 296.219V151.472ZM304.487 305.868H301.98C296.651 305.868 292.331 301.548 292.331 296.219V151.472C292.331 146.142 296.651 141.822 301.98 141.822H304.487C302.195 144.383 300.801 147.764 300.801 151.472V296.219C300.801 299.926 302.195 303.308 304.487 305.868ZM315.276 305.868H406.739L399.495 229.814C398.821 222.732 404.39 216.608 411.503 216.608H452.134C457.856 216.608 462.791 220.628 463.947 226.232L480.38 305.868H513.07C518.399 305.868 522.72 301.548 522.72 296.219V151.472C522.72 146.142 518.399 141.822 513.07 141.822H315.276C309.946 141.822 305.626 146.142 305.626 151.472V296.219C305.626 301.548 309.946 305.868 315.276 305.868ZM413.915 221.433H411.503C407.235 221.433 403.894 225.107 404.299 229.356L416.935 362.041C417.289 365.755 420.409 368.592 424.14 368.592H426.551C425.258 366.87 424.412 364.784 424.194 362.498L411.558 229.814C411.26 226.684 412.181 223.742 413.915 221.433ZM436.202 368.592C432.471 368.592 429.351 365.755 428.997 362.041L416.361 229.356C415.956 225.107 419.297 221.433 423.566 221.433H452.134C455.567 221.433 458.528 223.845 459.222 227.207L486.601 359.892C487.528 364.383 484.099 368.592 479.513 368.592H436.202ZM414.489 368.592C413.196 366.87 412.35 364.784 412.132 362.498L411.506 355.927H381.893C378.395 355.927 375.56 358.762 375.56 362.259C375.56 365.757 378.395 368.592 381.893 368.592H414.489Z" fill="black"/>
<path d="M311.287 361.522C308.044 364.26 304.414 363.872 300.884 361.522H257.014H236.212H220.048C218.263 365.25 215.874 368.564 213.051 371.005H356.864C359.528 371.005 361.688 368.844 361.688 366.18V358.339C361.688 355.674 359.528 353.514 356.864 353.514H318.243C316.011 356.777 313.598 359.572 311.287 361.522Z" fill="#FFC010"/>
<path fill-rule="evenodd" clip-rule="evenodd" d="M316.97 351.102H356.864C360.861 351.102 364.101 354.342 364.101 358.339V366.18C364.101 370.177 360.861 373.417 356.864 373.417H206.571L211.473 369.179C214 366.996 216.202 363.968 217.872 360.481C218.273 359.643 219.119 359.11 220.048 359.11H300.884C301.36 359.11 301.825 359.25 302.221 359.514C303.736 360.523 305.09 360.986 306.26 361.019C307.373 361.049 308.523 360.698 309.731 359.679C311.829 357.908 314.102 355.294 316.252 352.152L316.97 351.102ZM319.498 355.927C317.385 358.874 315.102 361.459 312.843 363.366C310.807 365.084 308.521 365.908 306.126 365.842C304.031 365.784 302.026 365.051 300.183 363.935H221.533C220.661 365.578 219.671 367.144 218.571 368.592H356.864C358.196 368.592 359.276 367.512 359.276 366.18V358.339C359.276 357.007 358.196 355.927 356.864 355.927H319.498Z" fill="black"/>
</svg>
