<svg width="351" height="471" viewBox="0 0 351 471" fill="none" xmlns="http://www.w3.org/2000/svg">
<path fill-rule="evenodd" clip-rule="evenodd" d="M164.138 106.2C164.728 105.462 165.298 104.715 165.848 103.959C165.252 104.725 164.681 105.475 164.138 106.2Z" fill="white"/>
<path d="M150.226 129.707C155.163 128.752 160.831 128.639 167.323 129.573C168.164 120.431 170.67 114.612 164.138 106.2C159.667 100.443 152.989 93.9936 145.844 97.6071C142.258 99.4205 135.363 108.942 135.517 113.902C135.792 122.731 141.606 123.702 150.226 129.707Z" fill="#FFC010"/>
<path d="M150.226 129.707C141.606 123.702 135.792 122.731 135.517 113.902C91.4253 111.026 93.991 119.891 100.785 124.683C106.933 128.79 119.229 139.264 119.229 148.3C119.229 151.445 121.733 151.355 125.434 149.48C132.364 145.97 143.49 136.201 150.226 129.707Z" fill="#FFC010"/>
<path d="M164.138 106.2C170.67 114.612 168.164 120.431 167.323 129.573C211.106 134.306 211.715 125.205 206.547 120.062C203.125 118.009 196.177 108.973 195.766 89.258C195.377 70.5746 176.635 90.0695 165.848 103.959C165.298 104.715 164.728 105.462 164.138 106.2Z" fill="#FFC010"/>
<path d="M161.624 171.146C143.122 178.204 152.438 192.837 138.809 185.975C136.721 192.806 134.948 203.204 135.517 214.327C136.331 230.249 141.943 247.657 158.293 258.21C161.493 260.275 164.645 261.559 167.73 262.179C191.42 266.937 211.186 232.551 218.79 212.445C220.527 205.798 191.455 202.674 173.689 192.485C165.458 187.765 165.44 173.65 161.624 171.146Z" fill="white"/>
<path d="M135.517 214.327C134.948 203.204 136.721 192.806 138.809 185.975C133.787 182.68 123.079 179.369 120.417 192.485C117.756 205.602 129.375 212.511 135.517 214.327Z" fill="white"/>
<path d="M158.293 258.21C141.943 247.657 136.331 230.249 135.517 214.327C132.606 230.238 125.274 262.777 119.229 265.647C116.204 267.084 102.988 266.178 87.0558 268.171C101.75 290.837 142.127 328.372 186.077 297.189C177.131 288.922 169.281 283.068 164.138 279.881L167.73 262.179C164.645 261.559 161.493 260.275 158.293 258.21Z" fill="white"/>
<path d="M18.1926 341.111C9.28948 368.295 2.73696 422.664 47.7519 422.664C61.4591 422.664 75.3907 421.703 88.6498 420.221C118.934 416.836 145.711 410.728 158.293 407.126C166.362 399.722 174.317 379.316 120.417 382.278L64.7806 388.616L64.7806 349.077L18.1926 341.111Z" fill="white"/>
<path d="M198.61 309.723L181.056 349.077C184.553 351.586 196.995 361.739 218.79 382.278C240.584 402.816 256.83 373.72 264.32 361.624L294.907 306.011C301.4 293.597 308.376 269.588 292.005 260.942C289.597 259.67 286.685 258.731 283.192 258.21C249.135 253.127 252.136 270.017 273.522 288.014L265.724 297.189L231.019 338.025L198.61 309.723Z" fill="white"/>
<path d="M273.522 288.014C252.136 270.017 249.135 253.127 283.192 258.21C286.685 258.731 289.597 259.671 292.005 260.942L298.003 243.14C299.833 237.71 296.863 231.832 291.406 230.083L274.262 224.589C268.798 222.838 262.96 225.904 261.299 231.396L246.846 279.202C245.33 284.217 247.831 289.568 252.651 291.621L265.724 297.189L273.522 288.014Z" fill="#4741FE"/>
<path fill-rule="evenodd" clip-rule="evenodd" d="M176.05 205.198C176.605 206.187 176.253 207.438 175.264 207.994L168.114 212.006C167.125 212.561 165.873 212.209 165.318 211.22C164.763 210.231 165.115 208.979 166.104 208.424L173.254 204.412C174.243 203.857 175.495 204.209 176.05 205.198ZM204.979 211.711C205.69 212.595 205.549 213.888 204.665 214.598L199.429 218.805C198.545 219.515 197.253 219.374 196.542 218.49C195.832 217.606 195.973 216.313 196.857 215.603L202.092 211.396C202.976 210.686 204.269 210.827 204.979 211.711ZM176.733 231.777C176.733 230.643 177.652 229.723 178.786 229.723H186.179C187.314 229.723 188.233 230.643 188.233 231.777C188.233 232.911 187.314 233.83 186.179 233.83H178.786C177.652 233.83 176.733 232.911 176.733 231.777ZM163.661 231.786C164.79 231.892 165.62 232.893 165.514 234.022C165.287 236.437 165.446 239.879 166.5 242.473C167.018 243.748 167.694 244.677 168.503 245.238C169.267 245.769 170.327 246.099 171.915 245.872C173.037 245.712 174.078 246.492 174.238 247.615C174.398 248.737 173.618 249.778 172.495 249.938C170.006 250.294 167.875 249.802 166.161 248.612C164.492 247.453 163.402 245.76 162.695 244.019C161.298 240.579 161.166 236.4 161.424 233.639C161.53 232.509 162.532 231.68 163.661 231.786Z" fill="black"/>
<path d="M135.517 113.902C135.363 108.942 142.258 99.4205 145.844 97.6071C152.989 93.9936 159.667 100.443 164.138 106.2C196.99 65.0763 168.489 -5.72249 119.229 18.9211C69.9682 43.5647 86.8112 103.016 135.517 113.902Z" fill="#9947FE"/>
<path d="M138.809 185.975C152.438 192.837 143.122 178.204 161.624 171.146C165.44 173.65 165.458 187.765 173.689 192.485C191.455 202.674 220.527 205.798 218.79 212.445C232.073 194.656 243.626 153.982 183.576 133.604C177.657 131.596 172.252 130.282 167.323 129.573C160.831 128.639 155.163 128.752 150.226 129.707C143.49 136.201 132.364 145.97 125.434 149.48C119.075 162.797 118.646 179.935 120.417 192.485C123.079 179.369 133.787 182.68 138.809 185.975Z" fill="#9947FE"/>
<path d="M36.7979 297.189C26.493 311.745 23.2086 317.307 18.1926 341.111L64.7806 349.077L64.7806 388.616L120.417 382.278C174.317 379.316 166.362 399.722 158.293 407.126C145.711 410.728 118.934 416.836 88.6498 420.221C128.302 421.682 174.711 422.664 181.056 422.664L181.056 349.077L198.61 309.723C194.309 305.076 190.083 300.891 186.077 297.189C142.127 328.372 101.75 290.837 87.0558 268.171C67.8504 270.573 51.1015 276.985 36.7979 297.189Z" fill="#9947FE"/>
<path fill-rule="evenodd" clip-rule="evenodd" d="M150.853 18.2725C142.399 14.7234 132.01 14.8234 120.148 20.7577C96.31 32.6829 88.7088 52.7997 92.6434 71.1398C96.4824 89.0339 111.373 105.554 133.774 111.368C133.99 110.481 134.305 109.586 134.668 108.722C135.411 106.956 136.439 105.129 137.57 103.435C138.701 101.739 139.963 100.133 141.198 98.8164C142.395 97.5387 143.696 96.3923 144.917 95.7746C149.309 93.5536 153.533 94.5095 157.054 96.6304C159.713 98.2325 162.09 100.556 164.084 102.882C164.124 102.83 164.164 102.778 164.205 102.726C178.494 83.0623 179.17 57.1884 170.613 38.7629C166.185 29.2278 159.358 21.8434 150.853 18.2725ZM176.025 89.1906C182.54 71.4877 181.287 51.9951 174.338 37.0329C169.59 26.8082 162.108 18.5433 152.442 14.4854C142.724 10.4055 131.078 10.6971 118.31 17.0845C92.8869 29.8029 84.2794 51.7335 88.6276 72.0013C92.1079 88.2239 103.841 103.164 121.388 111.291C117.073 111.26 113.425 111.39 110.358 111.653C104.433 112.161 100.433 113.178 97.9985 114.665C96.7489 115.428 95.776 116.398 95.2676 117.618C94.7462 118.869 94.8181 120.131 95.2055 121.246C95.9291 123.33 97.8054 125.094 99.6018 126.361C99.6159 126.371 99.6302 126.381 99.6445 126.391C102.607 128.37 107.081 131.908 110.787 136.018C114.581 140.225 117.175 144.601 117.175 148.3C117.175 149.324 117.374 150.393 118.014 151.278C118.7 152.228 119.69 152.685 120.688 152.81C121.053 152.856 121.421 152.859 121.789 152.83C116.971 165.748 116.767 180.981 118.336 192.429C117.002 199.574 119.511 205.114 123.162 209.042C126.204 212.316 130.045 214.491 133.174 215.695C131.687 223.567 129.294 234.654 126.571 244.321C125.105 249.528 123.558 254.264 122.026 257.848C121.259 259.643 120.52 261.09 119.828 262.144C119.096 263.26 118.577 263.684 118.348 263.792C118.225 263.851 117.907 263.956 117.285 264.062C116.692 264.164 115.935 264.248 115.007 264.32C113.205 264.46 110.913 264.541 108.174 264.639L107.909 264.648C102.236 264.851 94.8668 265.125 86.801 266.133C67.1908 268.586 49.845 275.206 35.1218 296.002C29.9706 303.279 26.4621 308.458 23.6338 314.851C20.8175 321.218 18.7119 328.703 16.2061 340.579C11.7192 354.323 7.78126 375.015 10.7281 392.424C12.2096 401.177 15.4622 409.279 21.4457 415.203C27.4715 421.17 36.0551 424.717 47.7519 424.717C61.4993 424.717 75.4549 423.758 88.7263 422.279C128.35 423.737 174.68 424.718 181.056 424.718C182.191 424.718 183.11 423.798 183.11 422.664L183.11 353.254C188.751 357.782 200.101 367.488 217.381 383.773C223.104 389.165 228.691 391.503 234.058 391.47C239.387 391.438 244.133 389.069 248.207 385.788C255.544 379.88 261.284 370.507 265.019 364.409C265.388 363.807 265.737 363.237 266.066 362.705C266.085 362.675 266.103 362.644 266.12 362.613L296.707 307L296.727 306.962C300.056 300.597 303.548 291.204 304.08 282.184C304.582 273.666 302.431 265.037 294.487 260.007L299.949 243.796C302.145 237.279 298.581 230.226 292.033 228.128L274.888 222.633C268.332 220.532 261.326 224.211 259.333 230.801L244.88 278.608C243.061 284.625 246.063 291.047 251.846 293.51L262.352 297.985L230.802 335.109L200.043 308.248C195.73 303.593 191.492 299.396 187.471 295.681C179.117 287.961 171.678 282.296 166.432 278.903L169.352 264.514C181.535 265.942 192.365 258.053 200.863 247.959C209.832 237.307 216.734 223.608 220.609 213.44C227.395 204.243 233.78 189.167 230.697 173.597C227.679 158.353 215.73 143.277 187.867 132.948C189.616 132.955 191.237 132.924 192.739 132.858C198.971 132.586 203.308 131.714 206.161 130.381C209.064 129.025 210.784 126.983 210.809 124.403C210.832 122.079 209.437 120.04 207.996 118.607C207.878 118.489 207.746 118.387 207.604 118.301C206.381 117.568 204.02 115.204 201.903 110.448C199.813 105.752 198.019 98.8395 197.819 89.2152C197.765 86.6093 197.374 84.4557 196.544 82.8253C195.669 81.1055 194.291 79.9676 192.498 79.6221C190.833 79.3015 189.098 79.7218 187.497 80.4155C185.867 81.1214 184.159 82.2045 182.447 83.5008C180.377 85.0691 178.199 87.0279 176.025 89.1906ZM166.713 106.236C166.977 105.89 167.236 105.542 167.49 105.192C172.542 98.6907 179.272 91.0574 184.927 86.775C186.495 85.5877 187.911 84.7119 189.129 84.1844C190.375 83.6447 191.212 83.5572 191.721 83.6553C192.101 83.7286 192.501 83.936 192.884 84.689C193.313 85.5313 193.664 86.978 193.713 89.3008C193.923 99.3913 195.808 106.854 198.151 112.118C200.384 117.136 203.09 120.274 205.253 121.675C206.284 122.75 206.709 123.714 206.702 124.364C206.698 124.789 206.499 125.69 204.422 126.66C202.296 127.654 198.594 128.491 192.56 128.755C186.946 129 179.453 128.745 169.583 127.745C169.689 126.857 169.804 125.998 169.919 125.147C169.993 124.599 170.066 124.054 170.136 123.508C170.389 121.526 170.595 119.551 170.548 117.565C170.462 113.863 169.505 110.254 166.713 106.236ZM165.503 127.269C165.617 126.316 165.74 125.4 165.858 124.527C165.929 123.997 165.998 123.483 166.062 122.986C166.31 121.043 166.481 119.323 166.442 117.66C166.368 114.458 165.516 111.323 162.516 107.46C160.326 104.639 157.726 101.83 154.934 100.149C152.212 98.509 149.524 98.0472 146.771 99.4398C146.199 99.7287 145.293 100.453 144.194 101.625C143.132 102.759 142.008 104.183 140.986 105.714C139.964 107.247 139.073 108.843 138.454 110.314C137.819 111.826 137.545 113.03 137.57 113.838C137.631 115.816 137.998 117.225 138.553 118.328C139.108 119.429 139.914 120.351 141.042 121.273C142.198 122.218 143.621 123.108 145.398 124.192C145.55 124.284 145.703 124.377 145.858 124.472C147.306 125.352 148.936 126.344 150.691 127.534C155.115 126.774 160.038 126.652 165.503 127.269ZM146.953 129.987C145.822 129.258 144.745 128.602 143.715 127.976C143.563 127.883 143.412 127.791 143.261 127.699C141.516 126.636 139.852 125.606 138.442 124.453C137.005 123.279 135.767 121.928 134.885 120.175C134.24 118.895 133.819 117.468 133.61 115.84C123.547 115.239 116.109 115.283 110.709 115.746C104.926 116.241 101.726 117.201 100.139 118.17C99.3786 118.635 99.1362 119.012 99.0587 119.198C98.9942 119.353 98.9657 119.554 99.0854 119.899C99.3747 120.732 100.36 121.866 101.949 122.991C105.134 125.121 109.869 128.866 113.838 133.268C117.729 137.584 121.282 142.963 121.282 148.3C121.282 148.505 121.298 148.648 121.316 148.742C121.504 148.742 121.828 148.705 122.321 148.56C122.918 148.383 123.649 148.082 124.506 147.648C127.756 146.002 132.124 142.806 136.598 139.126C140.261 136.114 143.913 132.845 146.953 129.987ZM151.205 131.614C147.863 134.816 143.55 138.726 139.207 142.298C134.958 145.793 130.572 149.055 127 150.979C122.305 161.203 121.111 173.767 121.712 184.612C121.884 184.41 122.061 184.217 122.243 184.032C124.073 182.169 126.277 181.279 128.503 181.035C132.763 180.566 137.126 182.439 139.833 184.191C141.416 184.982 142.559 185.407 143.392 185.593C144.229 185.78 144.613 185.695 144.779 185.631C144.933 185.571 145.144 185.435 145.447 184.995C145.774 184.52 146.089 183.872 146.522 182.925C146.565 182.831 146.609 182.735 146.654 182.637C147.47 180.848 148.568 178.445 150.613 176.066C152.794 173.531 155.973 171.104 160.892 169.228C161.508 168.993 162.199 169.068 162.751 169.429C163.585 169.977 164.195 170.756 164.66 171.53C165.132 172.314 165.528 173.217 165.88 174.141C166.298 175.236 166.719 176.549 167.145 177.878C167.409 178.703 167.676 179.534 167.945 180.322C169.46 184.769 171.329 188.765 174.711 190.704C182.452 195.143 192.439 198.219 201.184 200.912C202.195 201.223 203.19 201.53 204.163 201.833C208.768 203.266 212.961 204.644 215.897 206.12C217.137 206.744 218.291 207.45 219.174 208.282C224.736 199.607 229.175 187.058 226.668 174.394C223.899 160.406 212.5 145.589 182.916 135.549C177.097 133.575 171.817 132.294 167.03 131.605C160.991 130.736 155.748 130.81 151.205 131.614ZM216.81 211.874C216.81 211.866 216.808 211.859 216.805 211.85C216.792 211.808 216.738 211.678 216.549 211.466C216.143 211.013 215.354 210.445 214.052 209.79C211.47 208.492 207.61 207.207 202.943 205.754C201.979 205.454 200.985 205.149 199.965 204.835C191.292 202.168 180.836 198.952 172.667 194.267C167.818 191.486 165.562 186.064 164.057 181.647C163.727 180.679 163.441 179.783 163.172 178.943C162.783 177.724 162.432 176.626 162.043 175.605C161.728 174.781 161.433 174.133 161.141 173.647C161.126 173.623 161.112 173.599 161.098 173.577C157.51 175.13 155.257 176.966 153.727 178.745C152.07 180.672 151.184 182.609 150.357 184.415C150.323 184.489 150.29 184.563 150.256 184.636C149.846 185.531 149.393 186.507 148.83 187.324C148.244 188.176 147.443 189.003 146.265 189.46C145.099 189.913 143.83 189.9 142.495 189.602C141.769 189.439 140.984 189.183 140.13 188.838C138.401 195.397 137.072 204.529 137.568 214.222C138.364 229.787 143.824 246.427 159.407 256.485C162.414 258.425 165.327 259.601 168.134 260.165C178.816 262.311 188.982 255.693 197.722 245.313C206.336 235.082 213.051 221.77 216.81 211.874ZM136.393 186.927C134.189 185.745 131.405 184.848 128.952 185.117C127.541 185.272 126.255 185.808 125.172 186.911C124.069 188.034 123.04 189.885 122.43 192.894C121.253 198.696 123.201 203.051 126.17 206.246C128.317 208.556 130.991 210.241 133.365 211.323C133.23 201.927 134.64 193.237 136.393 186.927ZM135.104 226.806C133.798 232.82 132.227 239.391 130.525 245.434C129.039 250.709 127.437 255.64 125.803 259.462C124.987 261.37 124.139 263.061 123.262 264.398C122.424 265.673 121.392 266.894 120.11 267.503C119.476 267.803 118.719 267.984 117.977 268.111C117.207 268.243 116.31 268.339 115.325 268.415C113.435 268.561 111.065 268.646 108.382 268.741L108.056 268.753C103.197 268.926 97.2152 269.149 90.6571 269.827C98.2018 280.52 110.872 293.568 126.48 301.02C142.78 308.802 162.272 310.502 182.779 296.959C174.706 289.68 167.703 284.506 163.056 281.626C162.326 281.174 161.955 280.314 162.126 279.472L165.325 263.706C162.62 262.934 159.901 261.692 157.179 259.935C144.324 251.638 137.872 239.321 135.104 226.806ZM185.889 299.82C163.708 314.881 142.338 313.143 124.711 304.727C107.403 296.463 93.6937 281.783 86.0479 270.373C67.7856 272.846 52.0462 279.205 38.474 298.376C33.3203 305.655 30.0341 310.536 27.39 316.513C24.9015 322.138 22.9494 328.813 20.6477 339.447L65.1267 347.052C66.113 347.221 66.8342 348.076 66.8342 349.077L66.8342 386.315L120.185 380.238C120.225 380.233 120.265 380.23 120.305 380.227C133.881 379.482 143.711 380.196 150.689 381.873C157.64 383.544 162.029 386.238 164.306 389.682C166.632 393.199 166.48 397.069 165.293 400.394C164.119 403.682 161.888 406.615 159.682 408.639C159.447 408.854 159.165 409.012 158.858 409.1C149.63 411.742 132.891 415.705 112.752 418.978C142.186 419.887 170.269 420.49 179.003 420.594L179.003 349.077C179.003 348.788 179.063 348.503 179.181 348.24L196.181 310.128C192.664 306.373 189.206 302.933 185.889 299.82ZM199.353 313.098L183.601 348.414C188.457 352.144 200.566 362.283 220.198 380.783C225.373 385.66 229.99 387.388 234.033 387.363C238.113 387.338 241.983 385.527 245.631 382.59C252.373 377.16 257.74 368.415 261.534 362.233C261.885 361.661 262.223 361.111 262.546 360.588L293.088 305.059C293.091 305.053 293.094 305.047 293.097 305.041C296.258 298.992 299.494 290.185 299.98 281.943C300.465 273.712 298.223 266.548 291.046 262.758C288.875 261.612 286.191 260.734 282.889 260.241C274.479 258.986 268.616 259.134 264.851 260.172C261.169 261.186 259.862 262.904 259.599 264.747C259.293 266.889 260.248 269.985 262.917 273.891C265.535 277.723 269.586 282.018 274.844 286.442C275.262 286.794 275.523 287.298 275.568 287.843C275.614 288.387 275.44 288.927 275.086 289.344L232.638 339.292L228.346 345.257C227.683 346.178 226.4 346.387 225.479 345.725C224.559 345.062 224.349 343.779 225.012 342.858L228.261 338.343L199.353 313.098ZM62.727 386.563L62.7269 350.809L19.6063 343.436C15.4449 356.827 12.0953 375.891 14.7778 391.739C16.1722 399.977 19.1653 407.166 24.3355 412.285C29.4633 417.362 36.9412 420.61 47.7519 420.61C61.3665 420.61 75.2201 419.656 88.4217 418.18C118.207 414.85 144.579 408.876 157.249 405.288C158.955 403.633 160.579 401.382 161.425 399.013C162.314 396.522 162.295 394.087 160.88 391.948C159.417 389.735 156.193 387.42 149.729 385.867C143.301 384.322 133.931 383.596 120.589 384.325L65.013 390.657C64.9359 390.665 64.8583 390.67 64.7806 390.67L47.7519 390.67C46.6177 390.67 45.6983 389.75 45.6983 388.616C45.6983 387.482 46.6177 386.563 47.7519 386.563L62.727 386.563ZM265.138 294.707L270.633 288.241C265.927 284.12 262.137 280.031 259.525 276.208C256.681 272.045 255.005 267.861 255.533 264.167C256.103 260.173 259.095 257.497 263.76 256.212C268.343 254.949 274.876 254.893 283.495 256.179C286.217 256.585 288.643 257.238 290.79 258.114L296.057 242.485C297.521 238.14 295.145 233.438 290.779 232.039L273.635 226.545C269.264 225.144 264.593 227.596 263.265 231.99L248.811 279.797C247.599 283.808 249.6 288.089 253.456 289.732L265.138 294.707Z" fill="black"/>
<path d="M120.887 419.871C120.887 416.145 123.908 413.124 127.634 413.124H283.198C286.924 413.124 289.944 416.145 289.944 419.871V421.747C289.944 425.473 286.924 428.493 283.198 428.493H127.634C123.908 428.493 120.887 425.473 120.887 421.747V419.871Z" fill="#4741FE"/>
<path fill-rule="evenodd" clip-rule="evenodd" d="M283.198 416.497H127.634C125.771 416.497 124.261 418.008 124.261 419.871V421.747C124.261 423.61 125.771 425.12 127.634 425.12H283.198C285.061 425.12 286.571 423.61 286.571 421.747V419.871C286.571 418.008 285.061 416.497 283.198 416.497ZM127.634 413.124C123.908 413.124 120.887 416.145 120.887 419.871V421.747C120.887 425.473 123.908 428.493 127.634 428.493H283.198C286.924 428.493 289.944 425.473 289.944 421.747V419.871C289.944 416.145 286.924 413.124 283.198 413.124H127.634Z" fill="black"/>
<path d="M197.161 333.965C198.283 331.623 200.649 330.133 203.246 330.133H322.265C327.23 330.133 330.494 335.315 328.349 339.793L293.587 412.366C292.466 414.708 290.1 416.198 287.503 416.198H168.484C163.519 416.198 160.255 411.015 162.4 406.537L197.161 333.965Z" fill="#4741FE"/>
<path fill-rule="evenodd" clip-rule="evenodd" d="M322.265 333.506H203.246C201.947 333.506 200.764 334.251 200.204 335.422L165.442 407.995C164.369 410.233 166.001 412.825 168.484 412.825H287.503C288.801 412.825 289.984 412.08 290.545 410.909L325.307 338.336C326.379 336.097 324.747 333.506 322.265 333.506ZM203.246 330.133C200.649 330.133 198.283 331.623 197.161 333.965L162.4 406.537C160.255 411.015 163.519 416.198 168.484 416.198H287.503C290.1 416.198 292.466 414.708 293.587 412.366L328.349 339.793C330.494 335.315 327.23 330.133 322.265 330.133H203.246Z" fill="black"/>
</svg>
