<?xml version="1.0" encoding="utf-8"?>
<!-- Generator: Adobe Illustrator 27.5.0, SVG Export Plug-In . SVG Version: 6.00 Build 0)  -->
<svg version="1.1" id="Layer_1" xmlns="http://www.w3.org/2000/svg" xmlns:xlink="http://www.w3.org/1999/xlink" x="0px" y="0px"
	 viewBox="0 0 4000 4000" style="enable-background:new 0 0 4000 4000;" xml:space="preserve">
<g>
	<g>
		<g>
			<g>
				<rect style="fill:#FFFFFF;" width="4000" height="4000"/>
			</g>
		</g>
	</g>
	<g>
		<g>
			<g>
				<g>
					<circle style="fill:#02DAFF;" cx="2000" cy="1975" r="1340"/>
				</g>
			</g>
		</g>
		<g>
			<g>
				<g>
					<g>
						<g>
							<path style="fill:#A9B0BB;" d="M2240.385,3314.843c-56.734-1.904-113.337-22.33-164.099-65.129h-177.773
								c-43.838,36.957-92.046,57.253-140.904,63.311c-219.88,27.35-453.521-232.949-366.972-559.415
								c9.002-33.971,21.421-68.634,37.736-103.773h1118.052c19.777,42.625,33.884,84.602,43.015,125.411
								C2657.772,3080.163,2448.192,3321.853,2240.385,3314.843z"/>
						</g>
					</g>
				</g>
			</g>
			<g style="opacity:0.3;">
				<g>
					<g>
						<g>
							<path style="fill:#000072;" d="M2240.385,3314.843c-56.734-1.904-113.337-22.33-164.099-65.129h-177.773
								c-43.838,36.957-92.046,57.253-140.904,63.311c-203.219,25.272-418.209-195.17-381.252-486.497
								c29.427,224.078,209.537,378.18,381.252,356.802c48.858-6.058,97.065-26.354,140.904-63.311h177.773
								c50.761,42.799,107.365,63.225,164.099,65.129c164.445,5.539,330.058-144.668,358.013-358.749
								C2634.057,3106.734,2436.42,3321.464,2240.385,3314.843z"/>
						</g>
					</g>
				</g>
			</g>
			<g>
				<g>
					<g>
						<path style="fill:#E6EAED;" d="M2372.547,2981.453c-21.767,22.243-52.926,35.529-98.537,35.096
							c-27.133-0.26-53.228-9.347-76.078-23.931c-67.725-43.275-120.521,49.679-48.944,83.997l-61.753,181.885
							c-3.678-2.813-7.313-5.756-10.948-8.785h-177.773c-3.635,3.073-7.314,6.015-10.992,8.828h-3.765l-57.945-181.928
							c71.577-34.317,18.738-127.271-48.944-83.997c-22.849,14.584-48.944,23.671-76.077,23.931
							c-30.639,0.303-54.786-5.626-73.913-16.271c1.298-150.553,77.808-281.503,190.583-350.44
							c53.964-33.062,116.236-51.887,182.533-51.887c66.297,0,128.57,18.824,182.533,51.887
							C2290.584,2715.875,2365.363,2838.862,2372.547,2981.453z"/>
					</g>
				</g>
			</g>
			<g>
				<g>
					<g>
						<path style="fill:#FFFFFF;" d="M2148.988,3076.614l-9.823,28.994c-24.017-16.012-28.604-40.029-20.945-59.2
							C2122.894,3058.006,2132.717,3068.825,2148.988,3076.614z"/>
					</g>
				</g>
			</g>
			<g style="opacity:0.6;">
				<g>
					<g>
						<path style="fill:#FFFFFF;" d="M1856.58,3046.408c-10.3-25.835-42.799-42.799-79.713-19.171
							c-22.849,14.584-48.944,23.671-76.077,23.931c-30.639,0.303-54.786-5.626-73.913-16.271
							c-45.179-20.772-72.269-73.308-73.351-146.659c0,0,19.949,87.156,74.259,121.213c0.217-2.813,0.433-5.583,0.649-8.352
							c18.868,10.126,42.539,15.752,72.356,15.449c27.133-0.26,53.228-9.347,76.077-23.931
							C1829.187,2959.166,1872.592,3007.071,1856.58,3046.408z"/>
					</g>
				</g>
			</g>
			<g style="opacity:0.6;">
				<g>
					<g>
						<path style="fill:#FFFFFF;" d="M2372.547,3016.073c-21.767,22.243-52.926,35.529-98.537,35.096
							c-27.133-0.26-53.228-9.347-76.078-23.931c-36.957-23.628-69.457-6.665-79.712,19.171
							c-16.055-39.337,27.393-87.242,79.712-53.791c22.849,14.584,48.944,23.671,76.078,23.931
							c30.292,0.303,54.223-5.453,73.221-15.882c0.043,0,0.043,0,0.087-0.043c1.774-0.995,3.462-1.99,5.106-3.029
							c0.173-0.086,0.347-0.216,0.52-0.303c6.015-3.462,11.641-7.919,16.833-13.112v-0.043
							c32.153-31.894,48.598-89.752,48.598-89.752C2421.274,2970.115,2372.547,3016.073,2372.547,3016.073z"/>
					</g>
				</g>
			</g>
			<g style="opacity:0.6;">
				<g>
					<g>
						<path style="fill:#FFFFFF;" d="M2369.777,2984.136v0.043c-5.193,5.193-10.819,9.65-16.833,13.112
							C2359.088,2993.396,2364.671,2989.026,2369.777,2984.136z"/>
					</g>
				</g>
			</g>
			<g>
				<g>
					<g>
						<path style="fill:#000072;" d="M1725.529,3330.143c-3.018,0-6.033-0.049-9.063-0.146
							c-64.861-2.114-129.517-26.443-186.978-70.356c-78.389-59.905-134.937-149.592-159.231-252.534
							c-27.422-116.201-12.078-241.948,44.375-363.645c3.521-7.588,12.524-10.886,20.115-7.366
							c7.588,3.521,10.886,12.524,7.366,20.115c-117.305,252.876-27.402,477.59,105.769,579.363
							c111.223,84.995,241.838,85.981,340.872,2.556c6.399-5.381,15.959-4.575,21.343,1.826c5.388,6.399,4.57,15.952-1.826,21.343
							C1854.674,3306.445,1791.664,3330.141,1725.529,3330.143z"/>
					</g>
				</g>
			</g>
			<g style="opacity:0.3;">
				<g>
					<g>
						<path style="fill:#000072;" d="M2589.441,2775.248c-0.043,0.086-0.087,0.086-0.13,0.13
							c-148.606,110.264-353.426,170.027-585.423,170.027c-109.615,0-213.172-13.329-307.598-39.034
							c-82.396-22.417-157.781-54.267-224.251-94.859c-0.043-0.043-0.043-0.043-0.043-0.087
							c-28.864-17.613-56.041-36.913-81.357-57.815c9.002-33.971,21.421-68.634,37.736-103.773h1118.052
							C2566.202,2692.462,2580.31,2734.439,2589.441,2775.248z"/>
					</g>
				</g>
			</g>
			<g>
				<g>
					<g>
						<path style="fill:#F21CA0;" d="M2160.138,3249.712h-348.419c-46.59,0-84.358-37.768-84.358-84.358v-4.383
							c0-46.59,37.768-84.358,84.358-84.358h348.419c46.59,0,84.358,37.768,84.358,84.358v4.383
							C2244.496,3211.944,2206.728,3249.712,2160.138,3249.712z"/>
					</g>
				</g>
			</g>
			<g style="opacity:0.3;">
				<g>
					<g>
						<path style="fill:#000072;" d="M2244.496,3160.957v4.414c0,46.564-37.779,84.343-84.343,84.343h-348.45
							c-46.564,0-84.343-37.779-84.343-84.343v-4.414c0-8.439,1.255-16.617,3.592-24.277c10.429,34.707,42.669,60.022,80.751,60.022
							h348.45c38.082,0,70.322-25.316,80.75-60.022C2243.241,3144.34,2244.496,3152.518,2244.496,3160.957z"/>
					</g>
				</g>
			</g>
			<g style="opacity:0.6;">
				<g>
					<g>
						<path style="fill:#FFFFFF;" d="M2244.496,3160.957v4.414c0,4.89-0.433,9.65-1.212,14.324
							c-6.794-39.813-41.414-70.105-83.131-70.105h-348.45c-41.717,0-76.337,30.292-83.131,70.105
							c-0.779-4.674-1.212-9.434-1.212-14.324v-4.414c0-46.564,37.779-84.343,84.343-84.343h348.45
							C2206.717,3076.614,2244.496,3114.393,2244.496,3160.957z"/>
					</g>
				</g>
			</g>
			<g>
				<g>
					<g>
						<path style="fill:#000072;" d="M1825.822,3091.762c-5.645,0-11.064-3.169-13.667-8.601
							c-3.616-7.542-0.435-16.589,7.109-20.205c15.996-7.671,25.071-19.248,25.552-32.605c0.43-11.953-6.116-23.577-16.675-29.609
							c-12.214-6.98-27.537-5.339-43.127,4.624c-26.543,16.963-55.62,26.069-84.087,26.338c-0.752,0.005-1.504,0.01-2.248,0.01
							c-114.48,0-144.138-82.588-157.158-154.719c-1.487-8.232,3.982-16.111,12.214-17.595c8.25-1.482,16.113,3.984,17.595,12.214
							c16.616,92.043,53.552,129.807,127.266,129.807c0.681,0,1.36-0.002,2.048-0.01c22.776-0.212,46.309-7.671,68.057-21.57
							c25.173-16.089,52.317-18.057,74.47-5.4c20.22,11.553,32.749,33.928,31.917,57.002c-0.891,24.795-16.465,46.238-42.727,58.828
							C1830.248,3091.283,1828.019,3091.762,1825.822,3091.762z"/>
					</g>
				</g>
			</g>
			<g>
				<g>
					<g>
						<path style="fill:#000072;" d="M2160.138,3264.86h-348.42c-54.866,0-99.504-44.639-99.504-99.507v-4.382
							c0-54.866,44.639-99.504,99.504-99.504h348.42c54.866,0,99.504,44.639,99.504,99.504v4.382
							C2259.643,3220.221,2215.004,3264.86,2160.138,3264.86z M1811.718,3091.76c-38.164,0-69.212,31.047-69.212,69.211v4.382
							c0,38.164,31.047,69.214,69.212,69.214h348.42c38.164,0,69.211-31.05,69.211-69.214v-4.382
							c0-38.164-31.047-69.211-69.211-69.211H1811.718z"/>
					</g>
				</g>
			</g>
			<g>
				<g>
					<g>
						<path style="fill:#000072;" d="M1843.121,3203.146h-87.632c-15.535,0-28.129-12.594-28.129-28.129l0,0
							c0-15.535,12.594-28.129,28.129-28.129h87.632c15.535,0,28.129,12.594,28.129,28.129l0,0
							C1871.25,3190.552,1858.656,3203.146,1843.121,3203.146z"/>
					</g>
				</g>
			</g>
			<g>
				<g>
					<g>
						<path style="fill:#000072;" d="M2216.368,3203.146h-87.632c-15.535,0-28.129-12.594-28.129-28.129l0,0
							c0-15.535,12.594-28.129,28.129-28.129h87.632c15.535,0,28.129,12.594,28.129,28.129l0,0
							C2244.496,3190.552,2231.903,3203.146,2216.368,3203.146z"/>
					</g>
				</g>
			</g>
			<g>
				<g>
					<g>
						<path style="fill:#000072;" d="M1955.349,3050.287h-38.012c-4.939,0-8.942,4.004-8.942,8.942v11.687
							c0,4.939,4.004,8.942,8.942,8.942h38.012c4.939,0,8.942-4.004,8.942-8.942v-11.687
							C1964.291,3054.291,1960.287,3050.287,1955.349,3050.287z"/>
					</g>
				</g>
			</g>
			<g>
				<g>
					<g>
						<path style="fill:#000072;" d="M2054.52,3050.287h-38.012c-4.939,0-8.943,4.004-8.943,8.942v11.687
							c0,4.939,4.004,8.942,8.943,8.942h38.012c4.939,0,8.943-4.004,8.943-8.942v-11.687
							C2063.463,3054.291,2059.459,3050.287,2054.52,3050.287z"/>
					</g>
				</g>
			</g>
			<g>
				<g>
					<g>
						<path style="fill:#000072;" d="M1816.074,3031.715h48.143c9.261,0,16.769,7.508,16.769,16.769v28.129h-81.682v-28.129
							C1799.305,3039.223,1806.813,3031.715,1816.074,3031.715z"/>
					</g>
				</g>
			</g>
			<g>
				<g>
					<g>
						<path style="fill:#000072;" d="M2249.25,3330.143c-66.14,0-129.143-23.696-182.742-68.845
							c-6.396-5.391-7.214-14.944-1.826-21.343c5.388-6.396,14.949-7.209,21.343-1.826c99.031,83.428,229.648,82.439,340.872-2.556
							c133.171-101.772,223.074-326.487,105.769-579.363c-3.521-7.59-0.222-16.594,7.366-20.115
							c7.585-3.521,16.594-0.222,20.115,7.366c56.453,121.697,71.797,247.444,44.375,363.645
							c-24.294,102.942-80.842,192.629-159.231,252.534c-57.461,43.914-122.117,68.242-186.978,70.356
							C2255.287,3330.094,2252.262,3330.143,2249.25,3330.143z"/>
					</g>
				</g>
			</g>
			<g>
				<g>
					<g>
						<path style="fill:#000072;" d="M2148.959,3091.762c-2.197,0-4.426-0.479-6.538-1.492
							c-26.262-12.59-41.836-34.033-42.727-58.828c-0.833-23.076,11.697-45.449,31.917-57.002
							c22.151-12.651,49.292-10.688,74.468,5.398c21.75,13.901,45.286,21.36,68.059,21.572
							c75.088,0.803,112.544-36.904,129.314-129.797c1.484-8.232,9.348-13.718,17.595-12.214
							c8.232,1.484,13.701,9.363,12.214,17.595c-13.103,72.6-42.886,155.754-159.407,154.709
							c-28.464-0.269-57.542-9.375-84.089-26.338c-15.586-9.963-30.901-11.602-43.125-4.624
							c-10.559,6.033-17.104,17.656-16.675,29.609c0.481,13.357,9.556,24.934,25.552,32.605c7.544,3.616,10.725,12.664,7.11,20.205
							C2160.023,3088.593,2154.604,3091.762,2148.959,3091.762z"/>
					</g>
				</g>
			</g>
			<g>
				<g>
					<g>
						<path style="fill:#000072;" d="M2158.706,3031.715h-48.144c-9.261,0-16.769,7.508-16.769,16.769v28.129h81.681v-28.129
							C2175.475,3039.223,2167.967,3031.715,2158.706,3031.715z"/>
					</g>
				</g>
			</g>
			<g>
				<g>
					<g>
						<path style="fill:#00A4FF;" d="M3015.651,2182.308h-155.79c0-425.652-385.364-771.982-859.094-771.982
							s-859.094,346.329-859.094,771.982h-155.79c0-512.375,454.387-927.772,1014.884-927.772S3015.651,1669.932,3015.651,2182.308z
							"/>
					</g>
				</g>
			</g>
			<g style="opacity:0.6;">
				<g>
					<g>
						<path style="fill:#FFFFFF;" d="M3015.656,2186.261h-0.909c-22.676-494.027-467.975-888.175-1013.975-888.175
							s-991.299,394.148-1013.975,888.175h-0.909c0-512.375,454.387-927.771,1014.884-927.771S3015.656,1673.886,3015.656,2186.261z
							"/>
					</g>
				</g>
			</g>
			<g>
				<g>
					<g>
						<circle style="fill:#000072;" cx="1985.928" cy="3163.163" r="29.211"/>
					</g>
				</g>
			</g>
			<g>
				<g>
					<g>
						<path style="fill:#000072;" d="M3030.797,2197.455h-186.084v-15.146c0-417.322-378.594-756.836-843.948-756.836
							s-843.948,339.514-843.948,756.836v15.146H970.736v-15.146c0-519.927,462.07-942.92,1030.029-942.92
							c567.961,0,1030.032,422.993,1030.032,942.92V2197.455z M2874.848,2167.162h125.522
							c-8.909-496.255-453.899-897.48-999.604-897.48s-990.693,401.226-999.602,897.48h125.52
							c8.997-427.063,397.644-771.982,874.082-771.982S2865.851,1740.099,2874.848,2167.162z"/>
					</g>
				</g>
			</g>
			<g>
				<g>
					<g>
						<path style="fill:#A9B0BB;" d="M2837.926,2144.212c0,213.994-93.82,383.632-248.615,498.441
							c-148.606,110.265-353.426,170.027-585.423,170.027c-109.615,0-213.172-13.329-307.598-39.034
							c-82.396-22.416-157.781-54.267-224.251-94.859c-0.043-0.043-0.043-0.043-0.043-0.086
							c-89.665-54.743-162.93-125.454-214.817-210.532c-56.127-91.873-87.329-200.536-87.329-323.956
							c0-100.225,20.556-195.906,58.335-283.494v-490.868c0-121.689,122.468-195.559,216.288-130.474l273.195,189.588
							c88.584-28.605,184.827-44.184,286.22-44.184c69.846,0,137.268,7.4,201.358,21.378c24.84,5.366,49.161,11.771,72.962,19.084
							l278.388-189.458c93.864-63.874,215.163,10.083,215.163,131.166v476.327c32.542,70.192,53.877,145.923,62.186,225.203
							C2836.584,2093.364,2837.926,2118.637,2837.926,2144.212z"/>
					</g>
				</g>
			</g>
			<g style="opacity:0.3;">
				<g>
					<g>
						<path style="fill:#000072;" d="M2837.926,2144.212c0,213.994-93.82,383.632-248.615,498.441
							c-148.606,110.265-353.426,170.027-585.423,170.027c-109.615,0-213.172-13.329-307.598-39.034
							c-82.396-22.416-157.781-54.267-224.251-94.859c-0.043-0.043-0.043-0.043-0.043-0.086
							c-89.665-54.743-162.93-125.454-214.817-210.532c-56.127-91.873-87.329-200.536-87.329-323.956
							c0-39.337,3.16-77.938,9.305-115.631c13.112,77.549,39.769,147.957,78.024,210.576
							c51.887,85.079,125.151,155.79,214.817,210.533c0,0.043,0,0.043,0.043,0.087c66.47,40.592,141.855,72.442,224.251,94.859
							c94.426,25.705,197.983,39.034,307.598,39.034c231.997,0,436.817-59.763,585.423-170.027
							c126.363-93.733,212.09-223.991,239.311-385.06c2.164,13.199,3.938,26.484,5.323,39.899
							C2836.584,2093.364,2837.926,2118.637,2837.926,2144.212z"/>
					</g>
				</g>
			</g>
			<g>
				<g>
					<g>
						<path style="fill:#E6EAED;" d="M2833.944,2068.481c-257.573,50.026-516.486-69.759-615.759-302.362
							c-50.026-117.145-51.367-243.767-12.939-359.961c24.84,5.366,49.161,11.771,72.962,19.084l278.388-189.458
							c93.864-63.874,215.163,10.083,215.163,131.166v476.327C2804.301,1913.47,2825.635,1989.202,2833.944,2068.481z"/>
					</g>
				</g>
			</g>
			<g style="opacity:0.6;">
				<g>
					<g>
						<path style="fill:#FFFFFF;" d="M2771.759,1366.951v80.275c-3.159-0.779-6.448-1.342-9.737-1.774v-26.917
							c0-121.083-121.3-195.04-215.163-131.166l-278.387,189.458c-23.801-7.313-48.122-13.718-72.962-19.084
							c-64.09-13.978-131.512-21.378-201.358-21.378c-94.964,0-185.41,13.666-269.276,38.9c-10.881,3.274-22.66,1.317-31.996-5.162
							l-258.143-179.142c-77.895-54.05-175.566-12.29-206.465,73.135c3.809-118.227,123.853-188.765,216.202-124.718
							l273.195,189.588c88.584-28.605,184.827-44.184,286.22-44.184c69.846,0,137.268,7.4,201.358,21.378
							c24.84,5.366,49.161,11.771,72.962,19.084l278.388-189.458C2650.459,1171.911,2771.759,1245.868,2771.759,1366.951z"/>
					</g>
				</g>
			</g>
			<g>
				<g>
					<g>
						<path style="fill:#000072;" d="M2003.881,2827.829c-238.245,0-452.708-63.955-603.879-180.088
							c-160.476-123.276-245.3-297.395-245.3-503.528c0-99.373,19.631-195.781,58.357-286.604v-487.756
							c0-65.73,33.899-124.302,88.467-152.859c48.987-25.63,105.649-21.924,151.572,9.941l267.07,185.337
							c90.212-28.296,185.618-42.637,283.713-42.637c93.708,0,185.11,13.122,271.804,39.014l272.38-185.386
							c45.933-31.257,102.388-34.57,151.011-8.84c54.187,28.667,87.849,87.114,87.849,152.529v473.01
							c43.887,95.898,66.138,198.245,66.138,304.25c0,206.133-84.824,380.251-245.3,503.528
							C2456.591,2763.874,2242.128,2827.829,2003.881,2827.829z M1369.34,1230.224c-18.144,0-36.387,4.514-53.767,13.611
							c-44.548,23.31-72.222,71.599-72.222,126.018v493.994l-1.24,2.871c-37.9,87.856-57.117,181.218-57.117,277.495
							c0,390.774,329.085,653.323,818.887,653.323s818.889-262.549,818.889-653.323c0-102.703-21.78-201.809-64.736-294.568
							l-1.401-3.027v-479.666c0-54.163-27.483-102.349-71.721-125.754c-39.099-20.686-82.764-18.096-119.802,7.109l-284.382,193.552
							l-6.956-2.139c-85.879-26.404-176.682-39.792-269.89-39.792c-97.529,0-192.263,14.619-281.57,43.452l-7.131,2.302
							l-279.351-193.86C1415.136,1237.468,1392.318,1230.224,1369.34,1230.224z"/>
					</g>
				</g>
			</g>
			<g>
				<g>
					<g>
						<path style="fill:#F25FC1;" d="M1557.884,1460.413l-137.596-97.608c-31.782-22.546-73.683,2.731-73.282,44.221
							c0.722,74.6,1.402,173.729,0.609,227.462c-0.229,15.51,15.767,24.672,27.278,15.646l183.958-144.253
							C1573.248,1494.592,1572.745,1470.955,1557.884,1460.413z"/>
					</g>
				</g>
			</g>
			<g style="opacity:0.6;">
				<g>
					<g>
						<path style="fill:#FFFFFF;" d="M1571.181,1549.139l-183.961,144.278c-11.511,9.001-27.479-0.13-27.263-15.665
							c0.13-7.443,0.217-15.796,0.259-24.797c4.717,1.471,10.04,0.779,14.671-2.813l183.962-144.279
							c2.294-1.818,4.198-3.895,5.669-6.232l5.712,4.068C1585.073,1514.216,1585.592,1537.887,1571.181,1549.139z"/>
					</g>
				</g>
			</g>
			<g style="opacity:0.6;">
				<g>
					<g>
						<path style="fill:#FFFFFF;" d="M2416.053,1539.315l183.961,144.278c11.511,9.001,27.479-0.13,27.263-15.666
							c-0.13-7.443-0.217-15.795-0.259-24.796c-4.717,1.471-10.04,0.779-14.671-2.813l-183.962-144.278
							c-2.294-1.818-4.198-3.895-5.669-6.232l-5.712,4.068C2402.161,1504.392,2401.642,1528.064,2416.053,1539.315z"/>
					</g>
				</g>
			</g>
			<g>
				<g>
					<g>
						<path style="fill:#F25FC1;" d="M2652.252,1622.754c-0.555-55.547,0.081-146.269,0.753-215.728
							c0.401-41.491-41.5-66.767-73.282-44.221l-140.542,99.697c-13.447,9.539-13.902,30.927-0.875,41.142l178.02,139.596
							C2631.448,1655.098,2652.456,1643.132,2652.252,1622.754z"/>
					</g>
				</g>
			</g>
			<g style="opacity:0.3;">
				<g>
					<g>
						<path style="fill:#000072;" d="M2653.012,1407.024c-0.13,12.723-0.259,26.138-0.389,39.943
							c-14.973-14.887-38.255-18.997-57.772-5.193l-123.593,87.718l-32.932-25.835c-13.026-10.213-12.593-31.634,0.865-41.154
							l140.514-99.706C2611.511,1340.251,2653.401,1365.523,2653.012,1407.024z"/>
					</g>
				</g>
			</g>
			<g style="opacity:0.3;">
				<g>
					<g>
						<path style="fill:#000072;" d="M1345.154,1407.024c0.13,12.723,0.259,26.138,0.389,39.943
							c14.974-14.887,38.255-18.997,57.772-5.193l123.593,87.718l32.932-25.835c13.026-10.213,12.593-31.634-0.865-41.154
							l-140.514-99.706C1386.655,1340.251,1344.765,1365.523,1345.154,1407.024z"/>
					</g>
				</g>
			</g>
			<g>
				<g>
					<g>
						<polygon style="fill:#1B75BC;" points="1213.739,1860.807 1213.739,1860.719 1242.675,1860.719 						"/>
					</g>
				</g>
			</g>
			<g>
				<g>
					<g>
						<path style="fill:#000072;" d="M1364.86,1668.83c-4.697,0-9.417-1.077-13.83-3.264c-11.646-5.774-18.757-17.768-18.557-31.301
							c0.791-53.789,0.105-153.184-0.613-227.092c-0.251-26.204,13.242-49.619,35.215-61.108
							c20.112-10.513,43.276-8.877,61.977,4.387l137.598,97.607c10.835,7.688,17.5,20.535,17.83,34.365
							c0.334,13.896-5.754,27.122-16.282,35.376l-183.958,144.253C1378.525,1666.535,1371.718,1668.83,1364.86,1668.83z
							 M1394.53,1369.516c-4.529,0-9.08,1.125-13.421,3.394c-11.836,6.189-19.101,19.204-18.958,33.97
							c0.718,74.077,1.404,173.735,0.608,227.832c-0.039,2.703,1.431,3.569,1.726,3.716c0.342,0.166,0.483,0.239,1.062-0.212
							l183.958-144.253c3.042-2.385,4.795-6.428,4.69-10.813c-0.105-4.385-1.956-8.169-5.076-10.383l-137.595-97.607
							C1406.239,1371.408,1400.402,1369.516,1394.53,1369.516z"/>
					</g>
				</g>
			</g>
			<g>
				<g>
					<g>
						<rect x="2757.311" y="1843.281" style="fill:#1B75BC;" width="28.936" height="17.527"/>
					</g>
				</g>
			</g>
			<g>
				<g>
					<g>
						<path style="fill:#000072;" d="M2629.555,1663.056c-7.988,0-15.916-2.676-22.573-7.896l-178.02-139.597
							c-9.885-7.749-15.598-20.156-15.286-33.184c0.313-12.966,6.57-25.017,16.743-32.231l140.542-99.697
							c18.691-13.262,41.86-14.898,61.978-4.385c21.972,11.489,35.466,34.902,35.212,61.106
							c-0.652,67.383-1.311,159.458-0.752,215.43l0,0c0.156,15.918-8.22,29.983-21.863,36.704
							C2640.439,1661.821,2634.982,1663.056,2629.555,1663.056z M2605.48,1369.516c-5.874,0-11.709,1.892-16.992,5.642
							l-140.544,99.697c-2.412,1.711-3.901,4.795-3.984,8.252c-0.083,3.516,1.297,6.738,3.694,8.618l178.02,139.597
							c2.083,1.633,4.258,1.902,6.472,0.813c2.432-1.199,5.012-4.253,4.961-9.231l0,0c-0.559-56.218,0.1-148.506,0.752-216.025
							c0.144-14.766-7.119-27.781-18.955-33.967C2614.562,1370.641,2610.009,1369.516,2605.48,1369.516z"/>
					</g>
				</g>
			</g>
			<g>
				<g>
					<g>
						<g>
							<path style="fill:#F21CA0;" d="M2957.754,2216.828l-16.878,197.031l-6.707,78.414
								c-5.063,58.811-51.454,104.509-110.308,108.707l-551.236,39.207l-5.193-73.351l551.236-39.25
								c22.503-1.601,40.246-19.084,42.193-41.587l5.366-62.619l18.219-212.826L2957.754,2216.828z"/>
						</g>
					</g>
				</g>
			</g>
			<g style="opacity:0.6;">
				<g>
					<g>
						<g>
							<path style="fill:#FFFFFF;" d="M2957.754,2216.828l-2.294,26.83l-71.014-6.059l-18.219,212.826l-5.366,62.619
								c-1.947,22.503-19.69,39.986-42.193,41.587l-549.332,39.121l-1.904-26.917l551.236-39.25
								c22.503-1.601,40.246-19.084,42.193-41.587l5.366-62.619l18.219-212.826L2957.754,2216.828z"/>
						</g>
					</g>
				</g>
			</g>
			<g>
				<g>
					<g>
						<g>
							<path style="fill:#000072;" d="M2258.607,2656.381l-7.373-103.599l566.338-40.303c15.046-1.072,26.904-12.759,28.193-27.791
								l24.89-290.51l103.481,8.87l-24.893,290.51c-5.676,66.27-57.951,117.795-124.299,122.517L2258.607,2656.381z
								 M2283.603,2580.849l3.071,43.164l536.123-38.152c51.384-3.657,91.87-43.564,96.267-94.89l22.304-260.327l-43.115-3.696
								l-22.307,260.33c-2.568,29.976-26.213,53.281-56.223,55.417L2283.603,2580.849z"/>
						</g>
					</g>
				</g>
			</g>
			<g style="opacity:0.3;">
				<g>
					<g>
						<path style="fill:#000072;" d="M2957.754,2216.828l-16.878,197.031c-34.273-7.746-59.286,0.693-74.649,9.521l18.219-212.826
							L2957.754,2216.828z"/>
					</g>
				</g>
			</g>
			<g>
				<g>
					<g>
						<g>
							<path style="fill:#5B28A5;" d="M1169.327,2343.856l-1.67,0.013c-32.427,0.255-58.707-28.339-58.697-63.867l0.146-530.798
								c0.01-35.528,26.305-64.536,58.732-64.792l1.67-0.013c32.427-0.255,58.707,28.339,58.697,63.867l-0.146,530.798
								C1228.05,2314.593,1201.755,2343.601,1169.327,2343.856z"/>
						</g>
					</g>
				</g>
				<g>
					<g>
						<g>
							<path style="fill:#F21CA0;" d="M1106.004,2271.205l2.958-0.023l0.141-513.156l-2.958,0.023
								c-114.882,0.905-208.041,103.675-208.076,229.544l-0.016,57.346C898.019,2170.807,991.122,2272.11,1106.004,2271.205z"/>
						</g>
					</g>
				</g>
				<g style="opacity:0.3;">
					<g>
						<g>
							<path style="fill:#000072;" d="M1108.976,2280.009c0,35.529,26.268,64.134,58.681,63.874l1.688-0.043
								c32.413-0.26,58.724-29.254,58.724-64.782l0.13-530.811c0-0.606,0-1.211-0.043-1.817l-0.087,346.675
								c0,35.529-26.311,64.566-58.724,64.826h-1.688c-31.893,0.26-57.815-27.437-58.637-62.143L1108.976,2280.009z"/>
						</g>
					</g>
				</g>
				<g style="opacity:0.6;">
					<g>
						<g>
							<path style="fill:#FFFFFF;" d="M1109.106,1749.199v37.995c0.043-35.529,26.311-64.566,58.767-64.782l1.645-0.043
								c32.283-0.26,58.507,28.129,58.681,63.441v-37.563c0.043-35.528-26.268-64.09-58.681-63.83h-1.645
								C1135.417,1684.676,1109.149,1713.67,1109.106,1749.199z"/>
						</g>
					</g>
				</g>
				<g style="opacity:0.3;">
					<g>
						<g>
							<path style="fill:#000072;" d="M905.267,2044.94c0,125.887,93.084,227.151,207.979,226.285l2.943-0.043l0.13-513.154h-0.043
								l-0.087,383.329l-2.943,0.043c-103.6,0.779-189.457-81.487-205.339-189.977c-1.687,11.771-2.596,23.888-2.596,36.178
								L905.267,2044.94z"/>
						</g>
					</g>
				</g>
				<g style="opacity:0.6;">
					<g>
						<g>
							<path style="fill:#FFFFFF;" d="M898.097,2047.017v-16.142c0-125.887,93.171-228.665,208.066-229.53l2.943-0.043v-43.275
								l-2.943,0.043c-114.895,0.866-208.066,103.644-208.066,229.53l-0.043,57.339
								C898.054,2045.632,898.054,2046.324,898.097,2047.017z"/>
						</g>
					</g>
				</g>
				<g>
					<g>
						<g>
							<path style="fill:#000072;" d="M1167.218,2359.018c-18.542,0-36.208-7.405-49.797-20.889
								c-15.01-14.897-23.613-36.084-23.608-58.132l0.146-530.798c0.012-43.755,33.101-79.612,73.76-79.932l1.658-0.015
								c0.181,0,0.364-0.003,0.547-0.003c18.565,0,36.235,7.407,49.822,20.894c15.01,14.895,23.613,36.081,23.608,58.127
								l-0.146,530.798c-0.012,43.752-33.101,79.612-73.76,79.934l-1.68,0.012
								C1167.585,2359.015,1167.401,2359.018,1167.218,2359.018z M1169.928,1699.543c-0.1,0-0.2,0-0.3,0.002l-1.658,0.015
								c-24.104,0.188-43.711,22.461-43.718,49.648l-0.146,530.798c-0.005,14.026,5.337,27.373,14.653,36.621
								c7.869,7.808,17.971,12.097,28.474,12.097c0.102,0,0.203,0,0.305-0.002l1.68-0.012c24.087-0.195,43.689-22.466,43.696-49.651
								l0.146-530.798c0.005-14.023-5.337-27.371-14.653-36.616C1190.539,1703.832,1180.434,1699.543,1169.928,1699.543z"/>
						</g>
					</g>
				</g>
				<g>
					<g>
						<g>
							<path style="fill:#000072;" d="M1104.494,2286.357c-55.496,0-108.464-22.271-149.333-62.83
								c-45.935-45.588-72.271-110.684-72.253-178.594l0.017-57.346c0.037-133.95,100.12-243.716,223.103-244.685l18.228-0.134
								l-0.151,543.435l-17.979,0.149C1105.583,2286.354,1105.033,2286.357,1104.494,2286.357z M1093.952,1773.72
								c-100.703,7.813-180.705,101.05-180.735,213.877l-0.017,57.346c-0.017,59.888,23.054,117.143,63.298,157.082
								c32.503,32.256,73.777,51.064,117.322,53.716L1093.952,1773.72z"/>
						</g>
					</g>
				</g>
			</g>
			<g>
				<g>
					<g>
						<g>
							<path style="fill:#5B28A5;" d="M2830.658,2343.856l1.67,0.013c32.427,0.255,58.707-28.339,58.697-63.867l-0.146-530.798
								c-0.01-35.528-26.305-64.536-58.732-64.792l-1.67-0.013c-32.427-0.255-58.707,28.339-58.697,63.867l0.146,530.798
								C2771.936,2314.593,2798.231,2343.601,2830.658,2343.856z"/>
						</g>
					</g>
				</g>
				<g style="opacity:0.3;">
					<g>
						<g>
							<path style="fill:#000072;" d="M2891.024,2280.009c0,35.529-26.268,64.134-58.68,63.874l-1.688-0.043
								c-32.413-0.26-58.724-29.254-58.724-64.782l-0.13-530.811c0-0.606,0-1.211,0.043-1.817l0.087,346.675
								c0,35.529,26.311,64.566,58.724,64.826h1.688c31.893,0.26,57.815-27.437,58.637-62.143L2891.024,2280.009z"/>
						</g>
					</g>
				</g>
				<g style="opacity:0.6;">
					<g>
						<g>
							<path style="fill:#FFFFFF;" d="M2890.894,1749.199v37.995c-0.043-35.529-26.311-64.566-58.767-64.782l-1.645-0.043
								c-32.283-0.26-58.507,28.129-58.68,63.441v-37.563c-0.043-35.528,26.268-64.09,58.68-63.83h1.645
								C2864.583,1684.676,2890.851,1713.67,2890.894,1749.199z"/>
						</g>
					</g>
				</g>
				<g>
					<g>
						<g>
							<path style="fill:#F21CA0;" d="M2893.981,2271.205l-2.958-0.023l-0.141-513.156l2.958,0.023
								c114.882,0.905,208.041,103.675,208.076,229.544l0.016,57.346C3101.966,2170.807,3008.864,2272.11,2893.981,2271.205z"/>
						</g>
					</g>
				</g>
				<g style="opacity:0.3;">
					<g>
						<g>
							<path style="fill:#000072;" d="M3094.733,2044.94c0,125.887-93.084,227.151-207.979,226.285l-2.943-0.043l-0.13-513.154
								h0.043l0.086,383.329l2.943,0.043c103.6,0.779,189.457-81.487,205.339-189.977c1.687,11.771,2.596,23.888,2.596,36.178
								L3094.733,2044.94z"/>
						</g>
					</g>
				</g>
				<g style="opacity:0.6;">
					<g>
						<g>
							<path style="fill:#FFFFFF;" d="M3101.903,2047.017v-16.142c0-125.887-93.171-228.665-208.066-229.53l-2.943-0.043v-43.275
								l2.943,0.043c114.895,0.866,208.066,103.644,208.066,229.53l0.043,57.339
								C3101.946,2045.632,3101.946,2046.324,3101.903,2047.017z"/>
						</g>
					</g>
				</g>
				<g>
					<g>
						<g>
							<path style="fill:#000072;" d="M2832.76,2359.018c-0.186,0-0.369-0.002-0.552-0.002l-1.67-0.012
								c-40.659-0.322-73.748-36.182-73.76-79.934l-0.146-530.798c-0.005-22.046,8.599-43.232,23.606-58.127
								c13.723-13.621,31.501-20.986,50.359-20.891l1.682,0.015c40.645,0.32,73.733,36.177,73.745,79.932l0.146,530.798
								c0.005,22.048-8.598,43.237-23.608,58.132C2868.976,2351.613,2851.308,2359.018,2832.76,2359.018z M2830.768,2328.71
								l1.67,0.012c0.103,0.002,0.205,0.002,0.305,0.002c10.512,0,20.613-4.29,28.481-12.097
								c9.316-9.246,14.658-22.595,14.653-36.621l-0.146-530.798c-0.007-27.188-19.612-49.46-43.704-49.648l-1.682-0.015
								c-0.1-0.002-0.202-0.002-0.302-0.002c-10.493,0-20.596,4.289-28.465,12.1c-9.316,9.248-14.658,22.593-14.653,36.619
								l0.147,530.798C2787.079,2306.244,2806.681,2328.515,2830.768,2328.71L2830.768,2328.71z"/>
						</g>
					</g>
				</g>
				<g>
					<g>
						<g>
							<path style="fill:#000072;" d="M2895.492,2286.357c-0.542,0-1.086-0.002-1.631-0.005l-17.981-0.149l-0.152-543.435
								l18.223,0.134c122.991,0.969,223.074,110.735,223.11,244.685l0.017,57.346c0.017,67.91-26.318,133.005-72.253,178.594
								C3003.959,2264.084,2950.985,2286.357,2895.492,2286.357z M2906.032,1773.72l0.132,482.021
								c43.55-2.649,84.822-21.46,117.324-53.716c40.244-39.939,63.315-97.195,63.298-157.082l-0.017-57.346
								C3086.74,1874.777,3006.732,1781.545,2906.032,1773.72z"/>
						</g>
					</g>
				</g>
			</g>
			<g>
				<g>
					<g>
						<path style="fill:#00A4FF;" d="M2316.176,2672.731l-112.23,8.54c-21.771,1.657-40.763-14.649-42.42-36.421l-5.603-73.626
							c-1.657-21.771,14.649-40.763,36.421-42.42l112.23-8.54c21.771-1.657,40.763,14.649,42.42,36.421l5.603,73.626
							C2354.254,2652.082,2337.948,2671.074,2316.176,2672.731z"/>
					</g>
				</g>
			</g>
			<g style="opacity:0.3;">
				<g>
					<g>
						<path style="fill:#000072;" d="M2316.16,2672.729l-112.212,8.525c-21.768,1.688-40.765-14.627-42.409-36.394l-5.626-73.654
							c-0.433-5.972,0.433-11.728,2.424-16.964l2.813,36.568c1.645,21.767,20.642,38.082,42.41,36.394l112.255-8.525
							c15.839-1.168,28.735-11.554,33.971-25.446l2.813,37.087C2354.241,2652.087,2337.927,2671.085,2316.16,2672.729z"/>
					</g>
				</g>
			</g>
			<g style="opacity:0.6;">
				<g>
					<g>
						<path style="fill:#FFFFFF;" d="M2350.78,2645.596l-3.765-49.507c-1.687-21.767-20.686-38.082-42.452-36.394l-112.212,8.525
							c-16.444,1.255-29.773,12.377-34.577,27.133l-1.861-24.147c-1.645-21.767,14.67-40.765,36.437-42.41l112.212-8.525
							c21.767-1.644,40.765,14.627,42.452,36.394l5.583,73.654C2352.987,2635.643,2352.337,2640.792,2350.78,2645.596z"/>
					</g>
				</g>
			</g>
			<g>
				<g>
					<g>
						<path style="fill:#000072;" d="M2200.858,2696.535c-13.047,0-25.527-4.607-35.532-13.196
							c-11.082-9.514-17.796-22.776-18.902-37.341l-5.603-73.623c-1.109-14.565,3.52-28.689,13.034-39.771
							s22.776-17.793,37.341-18.901l112.227-8.54c14.58-1.094,28.689,3.521,39.768,13.035c11.084,9.514,17.795,22.773,18.904,37.339
							l5.603,73.625c1.108,14.563-3.521,28.687-13.035,39.768s-22.776,17.795-37.339,18.904l-112.229,8.54
							C2203.678,2696.481,2202.265,2696.535,2200.858,2696.535z M2307.614,2535.295c-0.628,0-1.258,0.024-1.89,0.073l-112.229,8.54
							c-6.497,0.493-12.412,3.489-16.655,8.43s-6.309,11.24-5.813,17.737l5.603,73.625c0.493,6.497,3.489,12.412,8.43,16.655
							c4.942,4.243,11.233,6.296,17.737,5.813l112.229-8.54c6.497-0.496,12.412-3.489,16.655-8.433
							c4.243-4.941,6.309-11.24,5.813-17.734l-5.603-73.628c-0.493-6.497-3.489-12.41-8.43-16.653
							C2319,2537.35,2313.432,2535.295,2307.614,2535.295z"/>
					</g>
				</g>
			</g>
			<g>
				<g>
					<g>
						<g>
							<path style="fill:#000072;" d="M2086.754,2392.669c14.133,41.07,3.836,80.019-22.088,105.515
								c-9.428,9.344-20.94,16.894-34.152,22.085c-35.556,13.999-75.695,5.786-105.589-18.07
								c-13.132-10.471-23.679-22.776-31.688-36.198c-25.023-41.646-25.82-93.475-5.766-130.576
								c9.193-17.045,31.769-21.166,46.557-8.689C1977.493,2363.398,2028.55,2385.118,2086.754,2392.669z"/>
						</g>
					</g>
				</g>
				<g>
					<g>
						<g>
							<path style="fill:#000072;" d="M2152.999,2215.671c0,25.808-39.32,46.729-87.823,46.729
								c-48.504,0-87.823-20.921-87.823-46.729c0-25.807,40.823-32.146,89.327-32.146
								C2115.182,2183.524,2152.999,2189.864,2152.999,2215.671z"/>
						</g>
					</g>
				</g>
				<g>
					<g>
						<g>
							<path style="fill:#D94452;" d="M2064.666,2498.184c-9.428,9.344-20.94,16.894-34.152,22.085
								c-35.556,13.999-75.695,5.786-105.589-18.07c-13.132-10.471-23.679-22.776-31.688-36.198
								C1950.573,2414.56,2033.892,2428.653,2064.666,2498.184z"/>
						</g>
					</g>
				</g>
				<g>
					<g>
						<g>
							<path style="fill:#000072;" d="M1994.286,2542.194c-27.649,0-55.647-9.675-78.806-28.157
								c-14.197-11.318-26.057-24.871-35.249-40.278c-27.092-45.088-29.49-102.231-6.084-145.537
								c6.519-12.085,18.017-20.498,31.541-23.066c13.623-2.593,27.505,1.06,38.108,10.002
								c40.62,34.263,89.373,55.288,144.907,62.49l9.316,1.208l3.057,8.882c15.437,44.856,5.796,90.181-25.789,121.243
								c-11.042,10.947-24.258,19.5-39.236,25.383C2022.697,2539.626,2008.537,2542.194,1994.286,2542.194z M1914.257,2334.64
								c-0.969,0-1.943,0.09-2.915,0.273c-2.659,0.505-7.561,2.178-10.537,7.7c-18.142,33.562-15.962,80.007,5.417,115.586
								c7.341,12.307,16.804,23.113,28.147,32.156c26.653,21.27,61.365,27.329,90.596,15.82
								c11.133-4.375,20.899-10.681,29.041-18.75c21.103-20.757,28.664-50.569,21.006-81.147
								c-57.353-9.094-108.027-31.931-150.747-67.966C1921.422,2335.917,1917.89,2334.64,1914.257,2334.64z"/>
						</g>
					</g>
				</g>
				<g>
					<g>
						<g>
							<path style="fill:#000072;" d="M2086.598,2377.512c22.903,1.201,45.681,0.547,67.678-4.146
								c21.962-4.622,43.022-13.599,61.298-27.322c2.864-2.166,6.942-1.599,9.109,1.267c2.002,2.649,1.653,6.35-0.674,8.604
								c-17.847,17.207-40.117,30.195-63.872,38.279c-23.778,8.198-48.722,11.914-73.235,13.608l-0.054,0.002
								c-8.361,0.579-15.608-5.73-16.185-14.092s5.732-15.608,14.093-16.187C2085.348,2377.485,2086.019,2377.485,2086.598,2377.512
								z"/>
						</g>
					</g>
				</g>
				<g>
					<g>
						<g>
							<path style="fill:#000072;" d="M2050.639,2407.887l-23.892-18.628c37.644-48.281,33.093-134.81,33.044-135.679l30.239-1.753
								C2090.265,2255.839,2095.216,2350.71,2050.639,2407.887z"/>
						</g>
					</g>
				</g>
				<g>
					<g>
						<g>
							<path style="fill:#000072;" d="M1864.525,2069.863c-10.571,0.461-20.26-0.334-29.624-1.589
								c-9.39-1.221-18.297-3.127-27.002-5.32c-17.334-4.497-33.632-10.466-48.975-17.795c-7.693-3.633-15.148-7.605-22.421-11.836
								c-7.328-4.153-14.556-8.445-21.672-12.9c-14.246-8.884-28.011-18.455-41.191-28.857
								c-26.361-20.806-50.287-45.076-74.547-68.867c-12.141-11.88-23.739-24.531-34.139-38.889
								c-10.424-14.324-20.062-29.761-27.321-48.586c20.168,0.464,37.958,4.314,54.962,9.277
								c17.029,4.932,32.858,11.567,48.145,18.975c30.596,14.783,61.527,29.089,90.022,46.858
								c14.248,8.884,27.91,18.604,41.091,29.004c6.598,5.19,13.085,10.54,19.47,16.03c6.442,5.413,12.7,11.086,18.722,17.097
								c12.085,11.958,23.215,25.278,33.311,40.068c5.009,7.451,9.816,15.188,14.139,23.611c4.351,8.386,8.374,17.236,11.517,27.341
								c0.808,2.595-0.642,5.354-3.239,6.162C1865.367,2069.773,1864.932,2069.844,1864.525,2069.863z"/>
						</g>
					</g>
				</g>
				<g>
					<g>
						<g>
							<path style="fill:#000072;" d="M1828.233,2039.526c0.531,11.851,0.053,23.99-1.597,36.268
								c-11.97,90.057-79.721,155.448-151.324,145.912c-71.603-9.535-119.883-90.281-107.918-180.416
								c7.719-57.979,38.539-105.739,78.679-129.828L1828.233,2039.526z"/>
						</g>
					</g>
				</g>
				<g>
					<g>
						<g>
							<g>
								
									<ellipse transform="matrix(0.1317 -0.9913 0.9913 0.1317 -548.8701 3523.3528)" style="fill:#FFFFFF;" cx="1736.752" cy="2074.98" rx="44.365" ry="35.255"/>
							</g>
						</g>
					</g>
					<g>
						<g>
							<g>
								<path style="fill:#000072;" d="M1771.904,2079.651c-1.044,10.408-4.845,20.852-11.973,29.026
									c-3.55,4.058-7.908,7.527-12.944,9.844c-5.012,2.349-10.764,3.303-16.377,2.683c-5.603-0.667-11.055-2.908-15.477-6.392
									c-4.454-3.457-7.997-7.922-10.603-12.805c-5.26-9.805-6.721-21.204-5.315-32.014c1.488-10.818,6.134-21.299,13.712-29.307
									c7.43-7.983,18.688-13.257,29.919-11.582c11.238,1.636,20.32,9.875,24.941,19.475c4.763,9.697,5.77,20.764,3.911,31.045
									L1771.904,2079.651z M1771.699,2079.624c0.767-10.413-1.139-21.008-6.144-29.866c-4.862-8.848-13.396-15.784-23.213-16.86
									c-9.802-1.204-19.513,3.574-26.053,10.92c-6.696,7.354-10.516,17.024-11.897,26.863c-1.218,9.88,0.233,20.144,4.74,28.894
									c4.452,8.708,12.48,15.632,22.075,17.139c9.596,1.477,19.607-2.766,26.65-9.973c7.147-7.19,11.813-16.895,13.636-27.146
									L1771.699,2079.624z"/>
							</g>
						</g>
					</g>
				</g>
				<g>
					<g>
						<g>
							<path style="fill:#000072;" d="M2195.994,2063.484c3.143-10.105,7.168-18.955,11.519-27.341
								c4.324-8.423,9.131-16.16,14.139-23.611c10.095-14.79,21.224-28.11,33.311-40.068c6.021-6.011,12.279-11.685,18.722-17.097
								c6.385-5.491,12.871-10.84,19.469-16.03c13.182-10.4,26.844-20.12,41.093-29.004c28.495-17.769,59.425-32.075,90.021-46.858
								c15.287-7.407,31.117-14.043,48.146-18.975c17.004-4.963,34.792-8.813,54.962-9.277
								c-7.258,18.826-16.898,34.263-27.321,48.586c-10.4,14.358-21.998,27.009-34.139,38.889
								c-24.26,23.792-48.186,48.062-74.547,68.867c-13.18,10.403-26.946,19.973-41.193,28.857
								c-7.115,4.456-14.344,8.748-21.672,12.9c-7.272,4.231-14.727,8.203-22.419,11.836c-15.343,7.329-31.641,13.298-48.975,17.795
								c-8.705,2.192-17.612,4.099-27.002,5.32c-9.364,1.255-19.054,2.051-29.624,1.589c-2.717-0.117-4.824-2.415-4.706-5.132
								C2195.795,2064.307,2195.875,2063.872,2195.994,2063.484z"/>
						</g>
					</g>
				</g>
				<g>
					<g>
						<g>
							<path style="fill:#000072;" d="M2236.774,2039.526c-0.531,11.851-0.053,23.99,1.597,36.268
								c11.969,90.057,79.721,155.448,151.324,145.912c71.603-9.535,119.883-90.281,107.918-180.416
								c-7.719-57.979-38.539-105.739-78.679-129.828L2236.774,2039.526z"/>
						</g>
					</g>
				</g>
				<g>
					<g>
						<g>
							<g>
								
									<ellipse transform="matrix(0.9913 -0.1317 0.1317 0.9913 -252.9762 324.6776)" style="fill:#FFFFFF;" cx="2328.255" cy="2074.98" rx="35.255" ry="44.365"/>
							</g>
						</g>
					</g>
					<g>
						<g>
							<g>
								<path style="fill:#000072;" d="M2293.513,2079.595c1.824,10.251,6.489,19.956,13.636,27.146
									c7.043,7.207,17.054,11.45,26.65,9.973c9.595-1.506,17.623-8.43,22.075-17.139c4.507-8.75,5.957-19.014,4.739-28.894
									c-1.379-9.839-5.2-19.509-11.897-26.863c-6.539-7.346-16.25-12.124-26.052-10.92c-9.817,1.077-18.351,8.013-23.213,16.86
									c-5.005,8.857-6.91,19.453-6.144,29.866L2293.513,2079.595z M2293.308,2079.624c-1.859-10.281-0.852-21.348,3.911-31.045
									c4.622-9.6,13.704-17.839,24.941-19.475c11.23-1.675,22.489,3.599,29.919,11.582c7.577,8.008,12.224,18.489,13.711,29.307
									c1.407,10.811-0.054,22.209-5.315,32.014c-2.606,4.883-6.147,9.348-10.602,12.805c-4.424,3.484-9.874,5.725-15.479,6.392
									c-5.613,0.62-11.364-0.334-16.377-2.683c-5.035-2.317-9.393-5.786-12.944-9.844c-7.126-8.174-10.928-18.618-11.971-29.026
									L2293.308,2079.624z"/>
							</g>
						</g>
					</g>
				</g>
				<g style="opacity:0.3;">
					<g>
						<g>
							<path style="fill:#FFFFFF;" d="M2062.062,2211.017c0.354,5.397-10.734,10.517-24.766,11.437
								c-14.031,0.92-25.693-2.709-26.047-8.106c-0.354-5.397,10.734-10.518,24.766-11.438
								C2050.047,2201.991,2061.708,2205.62,2062.062,2211.017z"/>
						</g>
					</g>
				</g>
			</g>
			<g style="opacity:0.6;">
				<g>
					<g>
						<path style="fill:#FFFFFF;" d="M2352.424,2997.594c-1.644,1.039-3.332,2.034-5.106,3.029
							C2348.832,2999.671,2350.52,2998.676,2352.424,2997.594z"/>
					</g>
				</g>
			</g>
		</g>
		<g>
			<g>
				<g>
					<path style="fill:#FFFFFF;" d="M2630.854,1197.231c23.211,0,46.501,5.701,68.223,17.192
						c54.187,28.667,87.849,87.114,87.849,152.529v206.86c32.239,34.849,61.763,71.856,88.281,110.759
						c13.577,10.62,23.679,26.028,28.176,43.889c3.091,5.132,6.113,10.303,9.102,15.491
						c114.353,11.208,204.543,116.492,204.577,243.635l0.015,57.344c0.017,67.91-26.318,133.008-72.256,178.599
						c-22.436,22.266-48.535,38.979-76.685,49.563l-18.892,220.466c-5.679,66.27-57.954,117.793-124.299,122.515l-195.078,13.882
						c-7.219,6.028-14.548,11.98-22.104,17.783c-11.279,8.667-22.954,17.004-34.924,25.085
						c45.85,112.449,56.905,227.4,31.682,334.28c-24.294,102.944-80.845,192.632-159.233,252.539
						c-57.458,43.911-122.114,68.237-186.975,70.352c-3.027,0.098-6.047,0.146-9.063,0.146c-64.346,0-125.696-22.49-178.333-65.283
						h-167.053c-52.637,42.793-113.994,65.283-178.335,65.283c-3.018,0-6.033-0.049-9.063-0.146
						c-64.861-2.114-129.517-26.44-186.975-70.352c-78.389-59.907-134.939-149.595-159.233-252.539
						c-26.565-112.568-12.874-234.082,39.321-352.205c-3.206-2.375-6.426-4.739-9.578-7.161
						c-101.914-78.289-173.264-177.107-211.804-291.584c-5.999,1.75-12.261,2.798-18.75,2.849l-1.704,0.01c-0.183,0-0.371,0-0.554,0
						c-18.518,0-36.182-7.402-49.766-20.884c-13.62-13.511-21.89-32.219-23.315-52.034c-51.69-2.598-100.635-24.546-138.945-62.566
						c-45.938-45.591-72.273-110.688-72.256-178.599l0.015-57.344c0.037-127.756,91.099-233.435,206.216-243.786
						c2.148-3.728,4.265-7.473,6.467-11.172c4.165-21.021,16.072-39.014,32.327-50.405c25.676-37.422,54.138-73.076,85.127-106.733
						v-205.637c0-65.732,33.899-124.302,88.469-152.861c21.587-11.296,44.658-16.892,67.654-16.89
						c29.177,0.002,58.228,9.016,83.914,26.831l133.037,92.322c126.934-51.304,267.2-79.866,414.634-79.866
						c145.4,0,283.823,27.781,409.368,77.754l137.932-93.877C2573.478,1205.969,2602.106,1197.231,2630.854,1197.231
						 M2630.854,1172.231c-34.175,0-67.666,10.5-96.855,30.369l-127.034,86.46c-128.938-49.558-265.517-74.67-406.199-74.67
						c-142.637,0-280.967,25.791-411.399,76.682l-122.019-84.678c-29.514-20.471-63.457-31.289-98.167-31.292
						c-27.546-0.003-54.209,6.638-79.246,19.739c-62.839,32.888-101.877,99.949-101.877,175.012v195.952
						c-28.298,31.352-54.614,64.539-78.35,98.806c-17.791,13.816-30.918,33.74-36.951,56.001
						c-57.009,8.684-109.458,38.46-148.926,84.856c-42.483,49.941-65.891,114.617-65.911,182.112l-0.015,57.344
						c-0.019,74.531,29.011,146.099,79.646,196.35c37.483,37.2,84.9,60.879,135.247,67.893
						c4.863,17.791,14.119,33.918,27.019,46.711c18.279,18.142,42.207,28.135,67.371,28.135h0.554l1.846-0.01
						c0.652-0.005,1.306-0.017,1.96-0.037c40.908,109.392,110.583,203.164,207.405,279.082
						c-47.964,117.463-59.409,238.003-33.027,349.797c25.618,108.552,85.418,203.254,168.384,266.66
						c61.621,47.092,131.243,73.191,201.34,75.476c3.311,0.105,6.594,0.159,9.878,0.159c67.07,0,131.548-22.542,187.029-65.283
						h149.665c55.481,42.742,119.956,65.283,187.026,65.283c3.284,0,6.57-0.054,9.866-0.159
						c70.11-2.285,139.731-28.384,201.353-75.476c82.966-63.406,142.766-158.108,168.384-266.66
						c24.893-105.481,16.028-219.421-25.544-330.723c6.814-4.856,13.337-9.683,19.688-14.561c5.239-4.026,10.728-8.391,16.641-13.24
						l187.085-13.313c78.694-5.601,140.698-66.714,147.434-145.317l17.595-205.344c26.03-11.841,49.751-28.301,70.681-49.075
						c50.635-50.251,79.665-121.819,79.646-196.35l-0.015-57.344c-0.017-67.148-23.218-131.58-65.322-181.419
						c-39.348-46.577-91.809-76.589-148.87-85.452c-0.427-0.725-0.852-1.438-1.272-2.144c-5.818-20.002-17.305-37.893-32.783-51.069
						c-24.697-35.935-52.205-70.669-81.89-103.403v-197.141c0-74.705-38.762-141.616-101.16-174.626
						C2685.922,1179.179,2658.288,1172.231,2630.854,1172.231L2630.854,1172.231z"/>
				</g>
			</g>
		</g>
	</g>
</g>
</svg>
